<?xml version="1.0" encoding="utf-8"?>
<!-- Generator: Adobe Illustrator 23.0.6, SVG Export Plug-In . SVG Version: 6.00 Build 0)  -->
<svg version="1.1" id="Слой_1" xmlns="http://www.w3.org/2000/svg" xmlns:xlink="http://www.w3.org/1999/xlink" x="0px" y="0px"
	 viewBox="0 0 54.7 54.7" style="enable-background:new 0 0 54.7 54.7;" xml:space="preserve">
<style type="text/css">
	.st0{opacity:0.1;}
	.st1{clip-path:url(#SVGID_2_);fill:none;stroke:#1D1D1B;stroke-width:2;}
	.st2{clip-path:url(#SVGID_2_);fill:#1D1D1B;}
</style>
<title>Ресурс 18</title>
<g class="st0">
	<defs>
		<rect id="SVGID_1_" x="0" y="0" class="st0" width="54.7" height="54.7"/>
	</defs>
	<clipPath id="SVGID_2_">
		<use xlink:href="#SVGID_1_"  style="overflow:visible;"/>
	</clipPath>
	<rect x="1" y="1" class="st1" width="52.7" height="52.7"/>
	<path class="st2" d="M21.4,26.7c2.9,0,5.3-2.4,5.3-5.3c0-2.9-2.4-5.3-5.3-5.3s-5.3,2.4-5.3,5.3C16.1,24.3,18.5,26.7,21.4,26.7"/>
	<path class="st2" d="M21.4,38.6c2.9,0,5.3-2.4,5.3-5.3c0-2.9-2.4-5.3-5.3-5.3s-5.3,2.4-5.3,5.3C16.1,36.2,18.5,38.6,21.4,38.6"/>
	<path class="st2" d="M33.3,26.7c2.9,0,5.3-2.4,5.3-5.3c0-2.9-2.4-5.3-5.3-5.3c-2.9,0-5.3,2.4-5.3,5.3
		C28.1,24.3,30.4,26.7,33.3,26.7"/>
	<path class="st2" d="M33.3,38.6c2.9,0,5.3-2.4,5.3-5.3c0-2.9-2.4-5.3-5.3-5.3c-2.9,0-5.3,2.4-5.3,5.3
		C28.1,36.2,30.4,38.6,33.3,38.6"/>
</g>
</svg>
