<svg xmlns="http://www.w3.org/2000/svg" viewBox="0 0 54.72 54.72"><defs><style>.cls-1{fill:none;stroke:#fff;stroke-width:2px;}.cls-1,.cls-2{opacity:0.3;}.cls-2{fill:#fff;}</style></defs><title>Ресурс 20</title><g id="Слой_2" data-name="Слой 2"><g id="Слой_1-2" data-name="Слой 1"><rect class="cls-1" x="1" y="1" width="52.72" height="52.72"/><path class="cls-2" d="M21.4,26.66a5.26,5.26,0,1,0-5.25-5.26,5.25,5.25,0,0,0,5.25,5.26"/><path class="cls-2" d="M21.4,38.57a5.26,5.26,0,1,0-5.25-5.25,5.25,5.25,0,0,0,5.25,5.25"/><path class="cls-2" d="M33.32,26.66a5.26,5.26,0,1,0-5.26-5.26,5.25,5.25,0,0,0,5.26,5.26"/><path class="cls-2" d="M33.32,38.57a5.26,5.26,0,1,0-5.26-5.25,5.25,5.25,0,0,0,5.26,5.25"/></g></g></svg>