<?xml version="1.0" encoding="UTF-8" standalone="no"?>
<!-- Created with Inkscape (http://www.inkscape.org/) -->

<svg
   xmlns:dc="http://purl.org/dc/elements/1.1/"
   xmlns:cc="http://creativecommons.org/ns#"
   xmlns:rdf="http://www.w3.org/1999/02/22-rdf-syntax-ns#"
   xmlns:svg="http://www.w3.org/2000/svg"
   xmlns="http://www.w3.org/2000/svg"
   xmlns:sodipodi="http://sodipodi.sourceforge.net/DTD/sodipodi-0.dtd"
   xmlns:inkscape="http://www.inkscape.org/namespaces/inkscape"
   width="15.565516mm"
   height="19.245407mm"
   viewBox="0 0 15.565516 19.245407"
   version="1.1"
   id="svg8"
   inkscape:version="0.92.1 r15371"
   sodipodi:docname="logo_mini.svg">
  <defs
     id="defs2" />
  <sodipodi:namedview
     id="base"
     pagecolor="#ffffff"
     bordercolor="#666666"
     borderopacity="1.0"
     inkscape:pageopacity="0.0"
     inkscape:pageshadow="2"
     inkscape:zoom="1.979899"
     inkscape:cx="139.98354"
     inkscape:cy="-22.214128"
     inkscape:document-units="mm"
     inkscape:current-layer="layer1"
     showgrid="false"
     inkscape:window-width="1366"
     inkscape:window-height="706"
     inkscape:window-x="-8"
     inkscape:window-y="-8"
     inkscape:window-maximized="1"
     inkscape:measure-start="4.54569,-45.4569"
     inkscape:measure-end="4.04061,-45.4569" />
  <metadata
     id="metadata5">
    <rdf:RDF>
      <cc:Work
         rdf:about="">
        <dc:format>image/svg+xml</dc:format>
        <dc:type
           rdf:resource="http://purl.org/dc/dcmitype/StillImage" />
        <dc:title></dc:title>
      </cc:Work>
    </rdf:RDF>
  </metadata>
  <g
     inkscape:label="Layer 1"
     inkscape:groupmode="layer"
     id="layer1"
     transform="translate(0.25508479,-0.11217591)">
    <path
       style="fill:#444444;stroke-width:0.3556551"
       d="M 1.7974763,17.974954 C 1.1035453,17.210105 0.35886931,15.94004 0.14264131,15.152586 c -0.447628,-1.630155 -0.549255,-6.6045012 -0.140346,-6.8694752 0.148883,-0.09647 0.954332,0.554936 1.78988399,1.447588 0.835552,0.8926532 1.676678,1.6230032 1.86917,1.6230032 0.192491,0 -0.465252,-0.865519 -1.46165,-1.9233782 -1.23144399,-1.307402 -1.81163299,-2.221006 -1.81163299,-2.852716 0,-1.498112 0.394653,-1.514275 1.80161799,-0.07379 1.69047,1.730749 1.743394,1.14248 0.05985,-0.665234 L 0.98500331,4.4807878 2.0491503,3.3650378 c 2.09846,-2.200225 4.550255,-1.017107 5.851235,2.823524 0.351666,1.038153 0.759006,1.887551 0.9052,1.887551 0.146195,0 0.295362,-1.106186 0.331484,-2.458192 l 0.06568,-2.458192 0.127061,2.18506 c 0.204664,3.519546 0.7835857,3.3043 0.7835857,-0.291342 0,-1.766281 0.146546,-3.168336 0.33116,-3.168336 0.182138,0 0.322722,0.696488 0.312411,1.54775 -0.04589,3.788639 0.210245,5.539483 0.828774,5.665037 0.873769,0.177365 1.4462,-1.316971 0.988259,-2.579858 -0.197676,-0.545141 -0.566062,-0.991164 -0.818636,-0.991164 -0.347473,0 -0.429448,-0.598194 -0.336863,-2.458191 0.176291,-3.54163805 0.344739,-3.95279205 0.39127,-0.955033 0.02971,1.914382 0.188555,2.724703 0.605157,3.087219 0.511494,0.445087 0.541717,0.347878 0.31988,-1.02884 -0.143912,-0.893116 -0.09472,-1.791183 0.119238,-2.176778 0.273383,-0.492696 0.366858,0.183747 0.374785,2.712227 0.0063,1.995587 0.152133,3.368633 0.357895,3.368633 0.19484,0 0.358051,-1.079247 0.371745,-2.458192 0.01655,-1.66646 0.117348,-2.223605 0.312956,-1.729839 0.158699,0.400594 0.201949,1.445263 0.09611,2.321488 -0.150573,1.246578 -0.06754,1.666418 0.381711,1.930023 0.713468,0.41864 0.740944,1.709825 0.05813,2.7319452 -0.456454,0.683285 -0.456454,0.796392 0,0.980044 0.607326,0.244355 0.672534,1.42841 0.136498,2.478572 -0.274458,0.537698 -0.274458,0.853655 0,1.141423 0.591658,0.62035 0.447207,2.002147 -0.290119,2.775229 -0.804707,0.84373 -3.436005,1.322663 -4.7478527,0.864175 -0.520066,-0.181761 -1.220619,-0.868196 -1.556784,-1.525409 l -0.611211,-1.194934 -0.41591,0.850165 c -0.647953,1.324485 -1.787892,2.107836 -3.080218,2.116685 -0.923924,0.0063 -1.458598,-0.296092 -2.444306,-1.382535 z m 4.345516,-0.309649 c 2.623327,-2.967886 2.338029,-11.6597692 -0.45842,-13.9661282 -1.120516,-0.924141 -1.845021,-0.911526 -2.828595,0.04925 l -0.789072,0.770782 1.070912,1.158482 c 1.899154,2.05445 0.918183,3.79216 -1.033822,1.831331 -1.70188299,-1.709576 -1.14291499,-0.548591 0.741927,1.540999 0.969756,1.0750982 1.699229,2.1561482 1.621051,2.4023352 -0.299752,0.943943 -1.409629,0.665529 -2.728088,-0.684345 -2.18061399,-2.2325722 -1.54743199,-0.601287 0.733179,1.888905 2.220689,2.424765 2.364545,2.7336 1.588056,3.409281 -0.399016,0.347212 -0.772372,0.169708 -1.910332,-0.908226 -0.777915,-0.736881 -1.41438899,-1.15157 -1.41438899,-0.921532 0,0.688042 1.02760399,3.052151 1.63007799,3.75016 0.867288,1.004818 2.746649,0.844971 3.777515,-0.321292 z m 5.3597307,0.445972 c 0,-0.910786 -1.5688207,-2.532913 -2.2029297,-2.277782 -0.737002,0.29653 -0.737418,1.284448 -9.03e-4,2.137755 0.689104,0.798376 2.2038327,0.894619 2.2038327,0.140027 z m 2.580188,-0.04632 c 0.779029,-0.816805 0.717157,-2.341136 -0.09502,-2.341136 -0.970777,0 -2.442795,2.108091 -1.882343,2.695721 0.387842,0.406651 1.429492,0.21986 1.977367,-0.354585 z M 12.19739,16.109496 c 0,-0.429679 -0.677422,-0.889319 -0.926222,-0.628455 -0.248799,0.260865 0.189583,0.971138 0.599388,0.971138 0.179758,0 0.326834,-0.154208 0.326834,-0.342683 z M 8.8752323,14.957312 c -0.303089,-0.514189 -0.845839,-0.380196 -0.845839,0.208819 0,0.324877 0.203745,0.45286 0.519004,0.326016 0.285453,-0.114848 0.432529,-0.355525 0.326835,-0.534835 z m -5.567837,-0.366139 c -0.363915,-0.422661 -1.28646,-1.283028 -2.050099,-1.911926 L -0.13113769,11.535795 1.1953963,13.244 c 0.729593,0.939513 1.510689,1.786942 1.735768,1.883177 0.883564,0.377775 1.009062,0.198983 0.376231,-0.536004 z m 8.1953277,-0.158519 c 0,-0.745187 -1.6409477,-2.444247 -2.1806987,-2.257924 -0.656217,0.226528 -0.698807,1.570456 -0.07064,2.229086 0.729973,0.76537 2.2513397,0.784859 2.2513397,0.02884 z m 2.580188,-0.0095 c 0.715184,-0.749866 0.721316,-2.341137 0.0091,-2.341137 -0.295233,0 -0.920433,0.402249 -1.389333,0.893888 -0.468899,0.491638 -0.852543,1.147156 -0.852543,1.456706 0,0.746835 1.517671,0.740406 2.232854,-0.0095 z m -2.112347,-2.369458 c -0.87141,-0.332412 -1.250341,-0.04107 -0.724882,0.557319 0.318747,0.36299 0.552322,0.386109 0.898549,0.08894 0.382614,-0.328399 0.350978,-0.446126 -0.173667,-0.646263 z M 11.309953,10.53427 C 10.944315,9.2837468 10.456616,8.8044308 9.5498623,8.8044308 c -0.584052,0 -0.825803,0.205608 -0.825803,0.702341 0,0.9749492 0.924659,1.8468952 1.9585467,1.8468952 0.73847,0 0.831429,-0.121414 0.627347,-0.819397 z m 2.646937,0.442407 c 0.437457,-0.245474 0.671831,-0.762219 0.671831,-1.4812472 0,-0.975175 -0.09136,-1.075535 -0.781499,-0.858543 -0.989795,0.311205 -1.512816,0.859589 -1.809627,1.8973832 -0.191752,0.670452 -0.09968,0.819397 0.506556,0.819397 0.407499,0 1.043231,-0.169645 1.412739,-0.37699 z"
       id="path10138"
       inkscape:connector-curvature="0"
       sodipodi:nodetypes="cscsssscsccssccssssssssccsccsscsccsssscscsccccsscssscsscsscccsscscscccscsscsccsscscscsccccssscccccccsssssssccss" />
  </g>
</svg>
