<?xml version="1.0" encoding="UTF-8" standalone="no"?>
<!-- Created with Inkscape (http://www.inkscape.org/) -->

<svg
   xmlns:dc="http://purl.org/dc/elements/1.1/"
   xmlns:cc="http://creativecommons.org/ns#"
   xmlns:rdf="http://www.w3.org/1999/02/22-rdf-syntax-ns#"
   xmlns:svg="http://www.w3.org/2000/svg"
   xmlns="http://www.w3.org/2000/svg"
   xmlns:sodipodi="http://sodipodi.sourceforge.net/DTD/sodipodi-0.dtd"
   xmlns:inkscape="http://www.inkscape.org/namespaces/inkscape"
   version="1.1"
   id="svg4852"
   width="200"
   height="200"
   viewBox="0 0 200 200"
   sodipodi:docname="logoegg.svg"
   inkscape:version="0.92.2 5c3e80d, 2017-08-06">
  <metadata
     id="metadata4858">
    <rdf:RDF>
      <cc:Work
         rdf:about="">
        <dc:format>image/svg+xml</dc:format>
        <dc:type
           rdf:resource="http://purl.org/dc/dcmitype/StillImage" />
        <dc:title></dc:title>
      </cc:Work>
    </rdf:RDF>
  </metadata>
  <defs
     id="defs4856" />
  <sodipodi:namedview
     pagecolor="#ffffff"
     bordercolor="#666666"
     borderopacity="1"
     objecttolerance="10"
     gridtolerance="10"
     guidetolerance="10"
     inkscape:pageopacity="0"
     inkscape:pageshadow="2"
     inkscape:window-width="2048"
     inkscape:window-height="1032"
     id="namedview4854"
     showgrid="false"
     inkscape:zoom="2.5119719"
     inkscape:cx="69.934716"
     inkscape:cy="112.13217"
     inkscape:window-x="0"
     inkscape:window-y="1"
     inkscape:window-maximized="1"
     inkscape:current-layer="svg4852" />
  <path
     style="fill:#ffffff;stroke-width:2.56175184"
     d="M 6.7143764,194.21149 0.42642768,187.92357 V 100.5911 13.258654 L 6.7143764,6.9707168 13.0023,0.6827818 h 87.33245 87.33245 l 6.28791,6.287935 6.28796,6.2879372 v 87.332446 87.33247 l -6.28796,6.28792 -6.28791,6.28795 H 100.33475 13.0023 Z M 185.97045,186.22681 c 3.49116,-3.49115 4.02562,-14.86035 4.02562,-85.63571 0,-70.775323 -0.53446,-82.144542 -4.02562,-85.6357 -3.49115,-3.491161 -14.86037,-4.025611 -85.6357,-4.025611 -70.7753,0 -82.144537,0.53445 -85.635699,4.025611 -3.491156,3.491158 -4.025615,14.860377 -4.025615,85.6357 0,70.77536 0.534459,82.14456 4.025615,85.63571 3.491162,3.49116 14.860399,4.02562 85.635699,4.02562 70.77533,0 82.14455,-0.53446 85.6357,-4.02562 z M 78.559858,165.4926 C 59.228193,155.27825 51.276206,140.09362 51.360079,113.55364 51.481249,75.243185 77.561466,31.423803 100.24189,31.423803 c 14.84807,0 33.92381,21.630592 43.74133,49.599736 9.33376,26.590861 6.13159,59.395731 -7.24122,74.183651 C 124.33431,168.92786 94.906987,174.13 78.559858,165.4926 Z"
     id="path4862"
     inkscape:connector-curvature="0" />
</svg>
