<svg xmlns="http://www.w3.org/2000/svg" viewBox="0 0 72.93 56.91"><defs><style>.cls-1{fill:none;stroke:#5688c7;stroke-linecap:round;stroke-linejoin:round;stroke-width:2px;}</style></defs><title>Ресурс 7</title><g id="Слой_2" data-name="Слой 2"><g id="Слой_1-2" data-name="Слой 1"><path class="cls-1" d="M36.46,12.44V51.33l-.2-.24a16,16,0,0,0-14.08-5.67l-12,1.34V1H16.5A32,32,0,0,1,34.21,6.36h0l2.25,1.5,2.26-1.5A18.29,18.29,0,0,1,48.87,3.29H67.35v48L48.2,49.59a25.11,25.11,0,0,0-11.63,1.7l-.11,0-.11,0a25.07,25.07,0,0,0-11.62-1.7L5.58,51.33v-48M71.93,7.86V55.91H1v-48"/></g></g></svg>