<svg xmlns="http://www.w3.org/2000/svg" viewBox="0 0 123.89 110.97"><defs><style>.cls-1{fill:none;stroke:#e94e4d;stroke-miterlimit:10;stroke-width:2px;}</style></defs><title>Ресурс 8</title><g id="Слой_2" data-name="Слой 2"><g id="Слой_1-2" data-name="Слой 1"><path class="cls-1" d="M71.4,64.45h3.24m-14.32,0h3.25m-14.32,0h3.24M73.84,110H67a4,4,0,0,1-4.06-4v-1.19a4,4,0,0,1,4.06-4h6.86a4,4,0,0,1,4.06,4V106A4,4,0,0,1,73.84,110ZM73,110h5.27C92.85,110,104.7,98.36,104.7,84V78.86m-90.91,0h5.4V50h-5.4A12.66,12.66,0,0,0,1,62.57v3.76A12.66,12.66,0,0,0,13.79,78.86Zm9.27,5.69h1.17a3.85,3.85,0,0,0,3.87-3.8V48.15a3.85,3.85,0,0,0-3.87-3.8H23.06a3.85,3.85,0,0,0-3.87,3.8v32.6A3.85,3.85,0,0,0,23.06,84.55Zm77.76,0H99.66a3.85,3.85,0,0,1-3.87-3.8V48.15a3.85,3.85,0,0,1,3.87-3.8h1.16a3.85,3.85,0,0,1,3.88,3.8v32.6A3.85,3.85,0,0,1,100.82,84.55Zm9.28-5.69h-5.4V50h5.4a12.66,12.66,0,0,1,12.79,12.53v3.76A12.66,12.66,0,0,1,110.1,78.86ZM11.61,50.34C11.61,23.09,34.15,1,62,1s50.33,22.09,50.33,49.34"/></g></g></svg>