<svg xmlns="http://www.w3.org/2000/svg" viewBox="0 0 49.23 41.17"><defs><style>.cls-1{fill:#e94e4d;}</style></defs><title>Ресурс 2</title><g id="Слой_2" data-name="Слой 2"><g id="Слой_1-2" data-name="Слой 1"><path class="cls-1" d="M20.59,0V2.72q-7,3.09-10.11,8a18.38,18.38,0,0,0-3.15,10,2.64,2.64,0,0,0,.42,1.61,1.14,1.14,0,0,0,.84.49,2.42,2.42,0,0,0,1.08-.43A8.23,8.23,0,0,1,14,21.39a8.11,8.11,0,0,1,6.15,2.84,9.53,9.53,0,0,1,2.62,6.68,10,10,0,0,1-3,7.17,9.75,9.75,0,0,1-7.26,3.09,11.44,11.44,0,0,1-8.83-4.11Q0,33,0,25.78a25.31,25.31,0,0,1,5.19-15.7Q10.4,3.21,20.59,0M47.07,0V2.72q-7,3.09-10.12,8a18.38,18.38,0,0,0-3.15,10,2.64,2.64,0,0,0,.42,1.61,1.14,1.14,0,0,0,.84.49,2.42,2.42,0,0,0,1.08-.43,8.23,8.23,0,0,1,4.32-1.05,8.14,8.14,0,0,1,6.16,2.84,9.56,9.56,0,0,1,2.61,6.68,10,10,0,0,1-3,7.17A9.75,9.75,0,0,1,39,41.17a11.4,11.4,0,0,1-8.82-4.11Q26.47,33,26.47,25.78a25.26,25.26,0,0,1,5.2-15.7Q36.86,3.21,47.07,0"/></g></g></svg>