<svg xmlns="http://www.w3.org/2000/svg" xmlns:xlink="http://www.w3.org/1999/xlink" viewBox="0 0 237.65 68.79"><defs><style>.cls-1{fill:none;}.cls-2{clip-path:url(#clip-path);}.cls-3{fill:#003d76;}</style><clipPath id="clip-path" transform="translate(0 0)"><rect class="cls-1" width="237.65" height="68.79"/></clipPath></defs><title>Ресурс 1</title><g id="Слой_2" data-name="Слой 2"><g id="Слой_1-2" data-name="Слой 1"><g class="cls-2"><path class="cls-3" d="M49.37,67.3h0a4.21,4.21,0,0,0,2.32.85,4.64,4.64,0,0,0,1.89,0,8.25,8.25,0,0,1-3.76-.75,1.2,1.2,0,0,0-.45-.15M7.16,66.78h0a2.61,2.61,0,0,0,1.08.43,2.52,2.52,0,0,0-.4-.74l-.38-.09a.79.79,0,0,0-.3.4m.71-1.35h0c.21.61.54,1.15.79,1.74.78,0,1.55-.07,2.33,0s1.54,0,2.31,0a4.43,4.43,0,0,0-1.1-.74c-.82-.21-1.67-.19-2.48-.42a12.13,12.13,0,0,0-1.2-.24,2.18,2.18,0,0,1-.65-.27M5.44,60.29h0a20.31,20.31,0,0,1,.45,4,6.8,6.8,0,0,1-1.22,2.87c.53,0,1.07,0,1.6,0,.39-.19.41-.68.72-1L7.23,66c0-.26,0-.51.06-.77a6.54,6.54,0,0,0-.35-.64c-.14-.58.23-1.16,0-1.72s-.3-1.3-.38-2a11,11,0,0,1-1.12-.62m15.85-.35h0c-.43.41-.82.87-1.29,1.24-.28.24-.53.51-.79.75-.63.6-1.36,1.08-1.94,1.73a4.64,4.64,0,0,0-.58,1,2.39,2.39,0,0,0-.13,1.19,4,4,0,0,1-.14,1,.94.94,0,0,0,.69.34c.54,0,1.09,0,1.63,0,1.06,0,2.13-.06,3.19-.21.07-.3.17-.61.24-.92s0-.61.11-.91.21-.3.23-.48a16.77,16.77,0,0,0,.08-2.45c0-.33.05-.68-.14-1-.32-.45-.64-.89-.95-1.35a.42.42,0,0,0-.21.08m3.08-.24h0c-.42.22-.81.47-1.21.72.1.38.18.78.26,1.18a7.14,7.14,0,0,1,.4,2.24,8.29,8.29,0,0,1-.22,1.47c0,.3-.07.61-.1.91a1.36,1.36,0,0,0,.31.78c.49,0,1,0,1.48,0a13.23,13.23,0,0,0,1.39-.3c.56.08,1.09.22,1.64.32a7.25,7.25,0,0,0,1.12.18H33c-.08-.2-.16-.41-.23-.62-.83-.2-1.68-.37-2.51-.56a1,1,0,0,1-.29-.14l-2-1.41c-.3-.21-.53-.49-.81-.73s-.39-.33-.41-.58c-.17-1.13-.35-2.26-.53-3.39-.5-.06-1-.06-1.51-.1a.65.65,0,0,0-.34,0M8.33,59h0c-.11.22,0,.47.09.68A8,8,0,0,1,9,58.59c-.08-.2-.17-.39-.25-.59a8.31,8.31,0,0,1-.41,1m16.14,0h0c.58.06,1.15.17,1.73.22.2-.07.22-.31.26-.49a2,2,0,0,0-.37-1.36A11.35,11.35,0,0,0,24.47,59m36.17-3.64h0a6.09,6.09,0,0,1,.54,2.12,7.36,7.36,0,0,1-5,7.15,5.13,5.13,0,0,1-4.11-.35A5.8,5.8,0,0,1,51,63.43a4.16,4.16,0,0,0,1.76,1.28,5.37,5.37,0,0,0,4-.09,7.47,7.47,0,0,0,4.47-5.4,5.71,5.71,0,0,0-.54-3.87M28,54.68h0L26.9,56c0,.37.05.74.12,1.09a10.34,10.34,0,0,0,.57.89c.19.36.62.42,1,.57a3.9,3.9,0,0,1,1,.58c.56.09,1.12,0,1.67.12L41.2,63c.11,0,.16.11.19.21.37,1.1.73,2.19,1.1,3.28a5.54,5.54,0,0,1-.42.65.33.33,0,0,0,.07.45,8,8,0,0,0,1.39,0,3.05,3.05,0,0,1,1.2-.23,2,2,0,0,0,1.2-.2c.12-.76.14-1.52.23-2.28a5.58,5.58,0,0,0-.69-.85l-.06-.46c0-.47-.26-.91-.31-1.38l-1.35-.37a1.71,1.71,0,0,1-.57-.21l-4.24-3c-.94-.69-1.86-1.39-2.84-2-.21-.14-.39-.38-.66-.38-.78,0-1.55-.07-2.33-.11a11.89,11.89,0,0,1-1.2-.1c-1-.4-2.07-.84-3.11-1.26a3.25,3.25,0,0,0-.77-.07M18,56.92h0a6,6,0,0,0-.3.69,13.06,13.06,0,0,1-.81,1.23c-.78,1-1.37,2.17-2.09,3.23a13,13,0,0,1-1.29,1.17,23.53,23.53,0,0,1-2.78.54A6,6,0,0,1,9,63.62c-.36-.06-.71-.14-1.07-.21-.11,0-.24-.06-.32,0s-.13.53-.06.79a2.46,2.46,0,0,0,1.56,1,10.24,10.24,0,0,0,1.43.34c.63,0,1.24.21,1.87.29a5.05,5.05,0,0,1,1,.62c.24.16.45.36.7.5.47,0,1,0,1.44,0a1.28,1.28,0,0,0,.73-1,4.15,4.15,0,0,1,.1-1.27c.15-.47.16-1,.35-1.43a21,21,0,0,1,1.48-1.51c.43-.47.9-.89,1.36-1.31a1.71,1.71,0,0,0,.38-.73,9.44,9.44,0,0,1,.39-1.17c-.15-.27-.43-.5-.38-.83s.08-.92.07-1.38a9.81,9.81,0,0,0-.61-1.67c-.47.76-.92,1.53-1.39,2.28m23.81-2.77h0a2.48,2.48,0,0,1-.86,0l-.78.55c.24,0,.46-.11.69-.17a9.24,9.24,0,0,0,1.39-.4.82.82,0,0,0-.44,0m10.91-.51h0a7.45,7.45,0,0,0-3.27,5.52,5.39,5.39,0,0,0,.93,3.53c0-.11-.08-.21-.13-.32a5.59,5.59,0,0,1-.43-3.15,7.44,7.44,0,0,1,2.86-4.84,6.11,6.11,0,0,1,4.83-1.28,4.73,4.73,0,0,1,2.68,1.61,4.58,4.58,0,0,0-3.81-2.18,6.22,6.22,0,0,0-3.66,1.11M5.71,51h0a.48.48,0,0,0-.18.33c0,.52,0,1-.06,1.57S5.1,54,5,54.55a8.14,8.14,0,0,0,.07,2.09A4,4,0,0,1,4.86,58a.92.92,0,0,0-.05.61,9.42,9.42,0,0,1,.36.93,5.9,5.9,0,0,0,.85.23A6.34,6.34,0,0,0,7.39,60c-.34-.23-.64-.51-1-.76a2.27,2.27,0,0,1-.57-.63c-.13-.24-.37-.41-.45-.67a1.72,1.72,0,0,1,.16-1.07c.31-.67.6-1.35,1-2A5.43,5.43,0,0,1,7.1,53.8,10.51,10.51,0,0,1,7,55.66a11.52,11.52,0,0,0,1.28-1.24,1.11,1.11,0,0,0,.23-.64c.13-1,.25-2,.38-2.94A7.53,7.53,0,0,0,8,50.46a8.15,8.15,0,0,0-1.15-.38c-.39.29-.76.6-1.13.91M24,48.6h0a1.39,1.39,0,0,0,.2.82c.25.78.57,1.53.89,2.28.14.47.3.94.46,1.4a5.53,5.53,0,0,0,.54,1,3.43,3.43,0,0,0,.45.61c.11.12.34,0,.24-.17-.56-.78-.8-1.73-1.29-2.56a9,9,0,0,1-.61-1.77,6.9,6.9,0,0,1-.3-1.68c-.2,0-.39,0-.58.05m-13.07.34h0c-.13.06-.3.11-.36.26-.2.43-.21.93-.39,1.38s-.33.91-.52,1.35a3.19,3.19,0,0,0-.24,1.14c0,.8-.07,1.59-.09,2.38a9.23,9.23,0,0,1-.07,1.18,2.07,2.07,0,0,0,.08.65c.06.36.16.72.24,1.08a.68.68,0,0,1,0,.59A14.06,14.06,0,0,1,8.2,60.8a2.72,2.72,0,0,0-.4,1.86,5.68,5.68,0,0,0,1.43.73,33.7,33.7,0,0,0,4.12-.68,6.85,6.85,0,0,0,1.85-2.16,13.59,13.59,0,0,0,1.12-2l-.71-.09a7.74,7.74,0,0,0-.13-1.36.7.7,0,0,0-.4-.49c-.35-.14-.74-.16-1.09-.32a1.6,1.6,0,0,1-.26-.93c0-.7,0-1.39.06-2.09.05-1.52,0-3,0-4.55,0-.18-.05-.46-.28-.45a14,14,0,0,0-2.63.72m45.56-1.56h0a3.49,3.49,0,0,0,.19.39,1.27,1.27,0,0,0,.05.61c.1.32,0,.66.07,1a.44.44,0,0,0,.56.23,2.27,2.27,0,0,0,0-.78c-.09-.3-.12-.61-.23-.9a2.78,2.78,0,0,0-.64-.54m-40.68.35h0c.8.64,1.55,1.35,2.33,2a3.3,3.3,0,0,0-1-1.44c-.34-.31-.63-.66-.94-1-.11.15-.23.29-.35.43m19.07-1.95h0c-.4.89-.83,1.76-1.28,2.63a1.09,1.09,0,0,0,.17.13,8.57,8.57,0,0,0,1.51-1,1,1,0,0,1-.4-.14c.21-.75.42-1.49.59-2.23-.21.2-.49.35-.59.64m-2.67.72h0a2.54,2.54,0,0,0-.69.62l1-.22c.11,0,.17-.15.24-.23A6.39,6.39,0,0,0,34,44.52a5.67,5.67,0,0,1-1.82,2M20.79,43.74h0a3.59,3.59,0,0,0-.74.3,2.83,2.83,0,0,0-.48.78,23.14,23.14,0,0,0-1.18,2.71c.41.26.58.74.89,1.1l.57.67c-.07.76-.19,1.51-.33,2.25a1.22,1.22,0,0,0,0,.33c.2.81.53,1.6.68,2.42.12.52.29,1,.43,1.54a5.3,5.3,0,0,1,0,.89c.32.41.52.9.81,1.34a3,3,0,0,0,.76-.28,8.11,8.11,0,0,0-.39,1.58.46.46,0,0,0,.31.44,1.92,1.92,0,0,0,.86,0,1.74,1.74,0,0,0,.94-.79,12,12,0,0,1,1.94-1.9c-.2,0-.41,0-.61,0s-.28-.09-.15-.21a4.3,4.3,0,0,1,1.06-.5,11.79,11.79,0,0,0-.55-1.84c-.18-.4-.33-.83-.49-1.24-.5-1.28-.81-2.62-1.28-3.9s-1.07-2.23-1.65-3.32c-.22-.83-.3-1.69-.47-2.52a2.56,2.56,0,0,0-.9.2M37,44.05h0c-.22.44-.39.91-.6,1.36a2.34,2.34,0,0,0-.1,1c0,.24.11.47.1.7a1.29,1.29,0,0,1-.3.22c-.55.34-1,.82-1.52,1.16-.77.57-1.62,1-2.4,1.58-.51.32-1,.59-1.57.91a3.31,3.31,0,0,1-.67.29,5,5,0,0,1-.88.4c-.82.17-1.67.16-2.49.37-.09-.12-.23-.22-.21-.38A7.66,7.66,0,0,1,26.65,50a3.07,3.07,0,0,0,.23,1c.06.13.14.3.31.29a9.48,9.48,0,0,0,1.4-.22,1.72,1.72,0,0,0,.66-.22,16.49,16.49,0,0,0,1.43-1.1.78.78,0,0,0,.27-.59,7.56,7.56,0,0,1-.2-1.72,6,6,0,0,1-.85.1c-.65.1-1.28.3-1.94.36-.87.13-1.73.31-2.6.45.11.78,0,1.57.18,2.34.05.24.18.45.25.69s0,.37.09.56.18.24.29.35c.21.58.52,1.12.73,1.7a1.31,1.31,0,0,0,.22.4c.08-.08.18-.14.16-.26a5.42,5.42,0,0,0-.13-1.27c.19.09.38.26.6.21l1.85-.24-1.36,1.61a3,3,0,0,1,.94.09c1,.4,2,.78,3,1.17.33.09.72.25,1,0A7.35,7.35,0,0,1,31.94,55a1.78,1.78,0,0,1-.44-.55c.46.16.81.58,1.32.58a6.13,6.13,0,0,1,1.27.21,18.56,18.56,0,0,0,1.66-.86,4.8,4.8,0,0,0,1-.93c-.16.4-.29.81-.47,1.21a.37.37,0,0,0,0,.09,15.72,15.72,0,0,0,1.5-2.22,8.47,8.47,0,0,1-.59,2.15,3.36,3.36,0,0,1-.28.68,9.33,9.33,0,0,1-1,.69c.33.17.61.41.94.58A18.09,18.09,0,0,0,37.83,54c.16-.67.3-1.34.46-2-.1,1.74-.23,3.48-.35,5.21l1,.54c0-1-.08-2-.05-3.06a7.76,7.76,0,0,1,0-1.18A3.28,3.28,0,0,1,39,52.33a14.81,14.81,0,0,0,.11,2c0,.24,0,.47.07.71.6-.63,1.3-1.14,1.89-1.78a5.7,5.7,0,0,0,.68-2.1c0-.22.17-.46.05-.68s-.36-.66-.54-1a1.34,1.34,0,0,0-.63-.44,7,7,0,0,0-1.9-.54c-.4,0-.79-.12-1.18-.16a15.47,15.47,0,0,1,1.92.12,3.3,3.3,0,0,1,2,.81,3.33,3.33,0,0,1,.68,1.22,11.06,11.06,0,0,0,.9,1.56,3.19,3.19,0,0,0,.91.71.55.55,0,0,1,.07.89,5.29,5.29,0,0,1-1.12.71c-.51.2-1.06.23-1.57.4s-1.22.22-1.78.47a1.12,1.12,0,0,0-.33.28,2.12,2.12,0,0,1,0,.24,2.91,2.91,0,0,0,.66,0,11.59,11.59,0,0,0,2.43-.14c.27-.11.55-.2.83-.29s.64-.39,1-.58a1.84,1.84,0,0,0,.56-.62q.41-.59.81-1.14a5.44,5.44,0,0,1-1-.09,4.11,4.11,0,0,1-.73-.53c-.42-.46-.43-1.12-.72-1.65a8.44,8.44,0,0,0-1.52-2.13,4.2,4.2,0,0,0-1-.3,12.38,12.38,0,0,0-2-.39c-.48,0-1,0-1.43,0a1.65,1.65,0,0,1,.79-.26,5.78,5.78,0,0,1,1.9,0c.62.07,1.22.2,1.83.29a5.48,5.48,0,0,1,1.65.8,2.87,2.87,0,0,1,.65.55,4.72,4.72,0,0,0,.49,1A2.52,2.52,0,0,0,44,51c0,.35.33.59.54.85s.56.34.85.49.2.25.28.38c.5-.48,1.19-.7,1.71-1.16a1.7,1.7,0,0,0,.42-1.26c0-.48-.13-1-.19-1.43,0,.4,0,.82,0,1.23a.65.65,0,0,1-.2.37c-.34.33-.75.6-1.11.92a1.8,1.8,0,0,1-.55.36c-.08,0-.2-.09-.11-.16.38-.46.76-.93,1.18-1.36A.59.59,0,0,0,47,50c-.12-.72-.2-1.46-.33-2.18a19.12,19.12,0,0,0-.29-2.13,3,3,0,0,0-1.31-1.06,7.52,7.52,0,0,1,.24,1.22A20.78,20.78,0,0,1,45.46,49a3.93,3.93,0,0,1-.21.9c-.23-.11-.46-.22-.69-.35a4.9,4.9,0,0,0,.32-1.21,12.85,12.85,0,0,0,0-2.4,6.43,6.43,0,0,0-.21-1.45.36.36,0,0,0-.18-.24,5.64,5.64,0,0,0-1-.38,6.53,6.53,0,0,0-2.2-.44c-.46.67-1.06,1.24-1.51,1.93-.11.18-.27.36-.23.58s.39.23.59.33c-.31.11-.62.18-.93.28-.55.16-1.05.43-1.59.6a10.13,10.13,0,0,0-1,.46c.41-.34.84-.65,1.24-1A12,12,0,0,0,39,45.51a11.36,11.36,0,0,0,1.94-2.1c-.7-.12-1.4-.19-2.1-.26a20,20,0,0,0-1.79.9m-.86-.64h0c-.2.05-.29.23-.4.37a2.75,2.75,0,0,0-.5.77c.31-.09.42-.43.65-.62.33-.35.85-.42,1.18-.77a6.09,6.09,0,0,0-.93.25m7.54-1.35h0A2.49,2.49,0,0,0,44,43c.13.21.22.5.49.55A4.39,4.39,0,0,1,46.42,45a4.28,4.28,0,0,0,.39-2.15,2.88,2.88,0,0,1-.7.56.58.58,0,0,1-.57,0c-.46-.26-.79-.72-1.25-1-.19-.11-.39-.21-.57-.33m-2.79-.15h0c-.17.27,0,.58,0,.87l.58.06a5.73,5.73,0,0,1-.61-.93m.8-.71h0a3,3,0,0,1-.61.51,3.44,3.44,0,0,0,1,1.18c.51.13,1.05.18,1.56.3-.29-.34-.64-.63-.93-1a2.44,2.44,0,0,1-1.05-1m8.19,3.34h0c.16,1.55.23,3.11.34,4.66,0,.14.13.21.22.29a1.7,1.7,0,0,0,.65-.47,2.65,2.65,0,0,0,.32-.88c.1-.33.41-.55.52-.89a2.15,2.15,0,0,0,0-1.18,7.53,7.53,0,0,0-.77-2.24c-.33-.49-.61-1-1-1.48A8.48,8.48,0,0,1,49.48,41c.15,1.18.27,2.36.44,3.53m-11-3.92h0a4.88,4.88,0,0,0,.24,1.61,1.63,1.63,0,0,0,.49.41c.33.09.68,0,1,.1,0-.19-.06-.37-.08-.56A1.29,1.29,0,0,1,39.41,42a.77.77,0,0,1-.26-.59,2.76,2.76,0,0,0-.22-.78m-1.14,1.6h0c-.12.19-.26.35-.38.54a4.08,4.08,0,0,1,1-.28,3.59,3.59,0,0,1,.72.11,1,1,0,0,1-.35-.37,4.35,4.35,0,0,1-.12-1.83,5.89,5.89,0,0,0-.85,1.83m-3.16-2.84h0c-.09.73-.3,1.45-.37,2.19a1.18,1.18,0,0,0,.42-.24c0-.65,0-1.3,0-1.95m-5.86-1h0c.15,2.26.36,4.51.53,6.76a5.78,5.78,0,0,0,.29,1.28l1.47.42c.05-.12.16-.23.14-.37a4.11,4.11,0,0,0-.53-1.37,10.87,10.87,0,0,1-1.2-3.66c-.18-1-.37-2-.56-3l-.14-.08m8.89-1.94h0a4.27,4.27,0,0,0-.09,1,8.11,8.11,0,0,0,.7,1.53,1.44,1.44,0,0,0,.28.37,3.94,3.94,0,0,0,.62-.67,5.17,5.17,0,0,0,1,.87c.32.15.59.38.91.53s.58-.17.85-.3a14.62,14.62,0,0,1,1.3.86c.38.16.81.13,1.21.26-.19-.16-.38-.32-.56-.49a2,2,0,0,1-.42-.73c.28.15.49.38.75.55a7.17,7.17,0,0,0,.69.43,3.71,3.71,0,0,0,2.35.23,2.45,2.45,0,0,1-1,.4c-.07.19.15.27.29.32a2.6,2.6,0,0,0,1.11-.36c-.06.25-.3.39-.43.59a5,5,0,0,1,.09,1.28,15.23,15.23,0,0,0-.4,1.51,8.68,8.68,0,0,0,.89-2.21c.15-.36.16-.76.34-1.11a6.44,6.44,0,0,1,.42,1.59,11.26,11.26,0,0,0,.19,1.42c.11.57.16,1.16.3,1.72a14.31,14.31,0,0,1,.2,2.53c0,.74-.54,1.3-.82,1.95a9.7,9.7,0,0,1,1.35-1c0-1,0-2-.07-3.08a9.69,9.69,0,0,1,0-1.32c-.07-1.28-.39-2.52-.55-3.78A.39.39,0,0,0,49,41a4,4,0,0,0,0,.77,19.91,19.91,0,0,0,.21,2.17,5.35,5.35,0,0,1,.09,1.38c-.14-.25-.06-.56-.14-.84-.16-.61-.26-1.25-.36-1.87s-.21-1-.28-1.56a1.77,1.77,0,0,1-.81.27c.22-.17.52-.18.7-.39a2.51,2.51,0,0,0,.6-.78c-.06-.24-.17-.46-.24-.69a.88.88,0,0,0-.2-.45,15.58,15.58,0,0,1-1.53-2,6.47,6.47,0,0,0-.58-.89c0,.29,0,.58,0,.87s.3.47.45.71-.13.32-.2.47c.15.2.37.38.4.64s-.19.17-.3.21a3.23,3.23,0,0,1-1,.09,2.38,2.38,0,0,1-1.52-.55,2.89,2.89,0,0,0-1.07-.63,6.22,6.22,0,0,0-2.49-.46,1.51,1.51,0,0,1-.63-.12,5.44,5.44,0,0,0,.43.83,5.37,5.37,0,0,0,.51.56.14.14,0,0,1-.16.2,3.55,3.55,0,0,1-.54-.3c-.1-.07-.24-.13-.28-.26s0-.46,0-.69a2.66,2.66,0,0,0-.28-.59L39.45,37c-.06.36,0,.73-.1,1.09-.23-.5-.39-1-.59-1.54a10.06,10.06,0,0,1-.36-2c-.25.63-.46,1.26-.74,1.87m-1.75-2.51h0c-.14.43-.2.88-.33,1.31s-.26,1.2-.4,1.79a14.18,14.18,0,0,0,0,3.32c.13.1.25.26.43.24s.18-.2.24-.32c.4-1,.33-2,.7-3A5.64,5.64,0,0,1,37.13,36c-.42.11-.88.36-1.31.17a5.61,5.61,0,0,1,0-.71c.08.1.13.24.25.31a2.62,2.62,0,0,0,.88-.19l-.88-.33c-.06-.45-.08-.92-.14-1.37M19.73,33.5h0c-.15.11-.11.33-.12.49a17.27,17.27,0,0,1-.11,2.59,2.16,2.16,0,0,0,.21.83A17.4,17.4,0,0,0,20.46,39c.66,1.18,1.29,2.38,2,3.54-.05.28-.14.56-.18.85s.12.79.13,1.18a7.21,7.21,0,0,0,0,1,2.62,2.62,0,0,0,.48,1c.14.2.23.46.45.59a15.32,15.32,0,0,0,2-.49c.08-.67.18-1.33.22-2-.1-1.33-.22-2.66-.33-4-.1-1.05-.15-2.11-.28-3.15a10.31,10.31,0,0,0-1.41-.81c-.14-.39-.18-.81-.32-1.21a6.88,6.88,0,0,0-.58-1.3.88.88,0,0,0-.46-.39c-.23-.07-.48,0-.72-.06a10.12,10.12,0,0,0-1.05-.27,3.32,3.32,0,0,0-.63,0m16.52-.62h0A4.94,4.94,0,0,0,36.32,34a5.79,5.79,0,0,1,.23,1,6.43,6.43,0,0,1,1.16.12,4.4,4.4,0,0,0,.29-.51c-.2-.09-.42-.14-.62-.23a4.79,4.79,0,0,1-1-.92A10.36,10.36,0,0,0,36.82,32a9.14,9.14,0,0,0-.57.86M25.06,31.6h0a.31.31,0,0,0-.08.29c.4,4.9.81,9.8,1.2,14.71l.51.45c.66-.07,1.32,0,2,0a.65.65,0,0,0,.4-.63c-.27-3.62-.52-7.23-.8-10.84a16.69,16.69,0,0,1-.2-2.83,1.06,1.06,0,0,1-.16-1c.06-.18-.08-.35-.14-.51a.88.88,0,0,1-.44.17,8.38,8.38,0,0,1-1.23-.06c-.09.47-.26.93-.36,1.39a.38.38,0,0,1-.15.24c-.07-.64-.14-1.28-.17-1.93a4.77,4.77,0,0,1-.36.62m10.76-.5h0a3.37,3.37,0,0,0-.71,1c-.17.48-.42.93-.57,1.41A17.9,17.9,0,0,0,34,35.2c0-.54.06-1.08.08-1.63.08-.38.24-.74.35-1.11s.41-.51.57-.8.17-.36.25-.54a9.51,9.51,0,0,1-1,.27c-1,.24-1.8,1.1-2.86,1.23-.42,0-.8.25-1.22.31a2.43,2.43,0,0,1-1.66-.17.86.86,0,0,0-.09.39,10.52,10.52,0,0,0,.21,1.25c.14.53.16,1.09.32,1.62s.19.82.35,1.21c0-.33-.06-.67-.08-1s-.15-.92-.15-1.39c0-.29,0-.59,0-.89.21.86.45,1.7.61,2.57.25,1.25.46,2.52.7,3.78a11.14,11.14,0,0,0-.2-1.82c-.16-.86-.19-1.73-.3-2.59a7.82,7.82,0,0,1,.1-1.53c.33,1.32.59,2.67.82,4s.57,2.78.77,4.17c.16-.2.34-.38.48-.59a9,9,0,0,0,.28-.88,9,9,0,0,0,.36-1.47c.1-.68.28-1.35.34-2a10.48,10.48,0,0,1,.58-2.46c0,.66,0,1.32,0,2-.07.87-.16,1.73-.24,2.6a19.51,19.51,0,0,1-.31,2c-.1.49-.11,1-.23,1.47a1.82,1.82,0,0,0,.74.36c0-.4.18-.79.19-1.19a3.67,3.67,0,0,1,.14-1.09,7.33,7.33,0,0,0,.48-1.78c.07-.51.25-1,.33-1.52s.11-1.15.26-1.7.33-1.2.45-1.81.43-1.32.61-2a10.89,10.89,0,0,1,.21-1.14,3.67,3.67,0,0,1,.53-.59c-.32.12-.73.09-1,.4M7.09,29.76h0C6.52,31.47,6,33.22,5.28,34.87c.13-1.28.47-2.52.71-3.77-.09.07-.2.11-.24.22-.28.72-.51,1.45-.74,2.19a7.87,7.87,0,0,0-.39,2.09,21.17,21.17,0,0,0-.06,4,39.47,39.47,0,0,1,.08,4.35,8.11,8.11,0,0,0,.21,2c0,.52,0,1,0,1.57l1-.12c0-.62,0-1.25-.06-1.87-.17-1.49-.16-3-.24-4.48a5.15,5.15,0,0,1,.09-1.75,41.91,41.91,0,0,0,1-5.67c.12-.79.32-1.57.42-2.37a15.47,15.47,0,0,1,.41-1.66l-.4.16m17.07-.38h0c-1,.45-1.8,1.39-2.95,1.52-.4-.13-.77-.35-1.16-.5a11.63,11.63,0,0,0-.21,1.94,2.64,2.64,0,0,0,.71.62,7.92,7.92,0,0,0,.85.34c.36.18.76.26,1.13.41a1.34,1.34,0,0,0,.44.1l1.68.18-.09-.92a1.38,1.38,0,0,0-.61-.18,2.73,2.73,0,0,1-1.06-.19,4.43,4.43,0,0,0,1.1-.41,3.13,3.13,0,0,0,1.11-1.93,2.89,2.89,0,0,0,1-.25,1.45,1.45,0,0,0,1.24.49.49.49,0,0,0,.36-.32,10,10,0,0,0-1.17-1,5.35,5.35,0,0,0-2.42.09M22.91,29h0l-.12.37a1.52,1.52,0,0,0,.48-.17c.12-.12.11-.3.14-.45l-.5.25M9.83,28.65h0c-.36.16-.73.3-1.09.45a7.53,7.53,0,0,0-.22,1c0,.12-.1.18-.18.26-.17-.32-.33-.63-.48-1-.16,1.1-.38,2.18-.53,3.28-.38,2.2-.68,4.41-1,6.62a9,9,0,0,0,0,1.56c.1,2.14.21,4.27.3,6.41l4.63.28a2.63,2.63,0,0,0,.91-.18l2.47-.65a4.83,4.83,0,0,0,.74-.22,12.28,12.28,0,0,0,1-1.19,6.43,6.43,0,0,1-1,.52c-.61.24-1.26.36-1.88.57a11.66,11.66,0,0,1-1.29.34,8.65,8.65,0,0,0-1.25-.06c0-.18.08-.35.11-.53-.6,0-1.2,0-1.8,0L8,46.15a17.49,17.49,0,0,0,1.75-.5,10.63,10.63,0,0,0,1.57-.4l1-.5a10.31,10.31,0,0,0,1.43-1,16.4,16.4,0,0,0,1.43-1.19.81.81,0,0,1-.1.31c-.24.37-.5.72-.77,1.07-.34.53-.46,1.16-.81,1.68q.45-.15.9-.27c.31-.06.48-.36.7-.55.49-.43.85-1,1.35-1.39.14-.08.11-.25.12-.38,0-.79,0-1.58,0-2.38,0-2,.11-4,.1-5.94,0-.75-.11-1.49-.07-2.23.05-.56-.1-1.12-.09-1.68a1.2,1.2,0,0,0,0-.38c-.18-.27-.41-.51-.61-.76-.06.66-.09,1.32-.15,2a8.38,8.38,0,0,1-.86,2.6,5.35,5.35,0,0,1-.61,1.19,4.85,4.85,0,0,1,.16-1,18.71,18.71,0,0,0,.51-2.31,13.12,13.12,0,0,0,.17-2.66A19,19,0,0,0,12.52,29a15.32,15.32,0,0,0-2-.32,1.34,1.34,0,0,0-.66,0m13-.49h0c0,.12,0,.25-.06.36l.53-.23c0-.13,0-.26,0-.39a5.06,5.06,0,0,1-.44.26m-.17-.34h0a.46.46,0,0,0,.07.07c.2-.13.51-.22.56-.49a2.48,2.48,0,0,0-.63.42M37.2,26.68h0a1.82,1.82,0,0,0-.35.38,2.82,2.82,0,0,1-.09.71l.21.35a1.89,1.89,0,0,0,.31-.25c.1-.17.15-.36.25-.54,0,.16.09.32.13.48a6.25,6.25,0,0,1,.86.08c0-.22-.12-.48,0-.68a1.71,1.71,0,0,1,.57.21,1.44,1.44,0,0,1-.41-.88c-.5,0-1,.15-1.49.14m.22-.53h0a2,2,0,0,0-.1.21c.43,0,.85-.05,1.28-.08-.33-.31-.79-.06-1.18-.13M25.57,26h0c-.17.4-.06,1-.5,1.24-.51,0-1,.07-1.53.09.05.12.1.24.14.36a1.36,1.36,0,0,0-.15.47,2.91,2.91,0,0,0,.21.48,2.81,2.81,0,0,0-.1.31c.55,0,1.09,0,1.65,0s.83.07,1.26.07c.79,0,1.59.06,2.4.05l-.15-.37a1,1,0,0,0,.16-.49,1.56,1.56,0,0,0-.2-.41c0-.11.07-.22.1-.33a11.36,11.36,0,0,1-1.75,0,.63.63,0,0,1-.57-.48,4.15,4.15,0,0,1-.15-1.16,5.17,5.17,0,0,0-.82.19m-.82-.6h0c-.17.12-.28.32-.46.45s-.2.47-.23.71-.09.4.11.5A2.41,2.41,0,0,0,25,27c.18,0,.17-.24.16-.38,0-.31,0-.63,0-.95,0-.16-.17-.35-.36-.27m-.33-3.62h0a5.47,5.47,0,0,0-.82.45c-.45.24-.43.82-.66,1.22a7.26,7.26,0,0,1-.77,1.13,2.48,2.48,0,0,0-.51.76,1.91,1.91,0,0,0-.07,1.06c0,.14,0,.33.13.41a1,1,0,0,0,.6.12,1,1,0,0,1-.53-.65.88.88,0,0,1,.12-.66,1,1,0,0,0,.26.65,5.64,5.64,0,0,0,.46-.7,5.41,5.41,0,0,0,.58-.07c0-.16.08-.32.13-.48l1.31,0a7.11,7.11,0,0,1,1.77.34c0-.15,0-.32-.12-.42a5.46,5.46,0,0,0-1.71-.52c-.4,0-.8.06-1.2,0A2.37,2.37,0,0,1,25,23.82c.18,0,.31.14.47.2a3.89,3.89,0,0,1,1.28.48l.19-.2c0-.18-.06-.41-.23-.53a6.64,6.64,0,0,0-1.05-.57A1.73,1.73,0,0,0,24.52,23c-.31.09-.62.22-.93.29a.6.6,0,0,1,.27-.32,7.05,7.05,0,0,1,.94-.59,2,2,0,0,1,.48.11,3.76,3.76,0,0,1,1,.35c.26.15.35.47.63.59,0-.16.09-.34,0-.48a2.85,2.85,0,0,0-.53-.66c-.27-.16-.58-.22-.85-.36a1.57,1.57,0,0,0-1.08-.16m14.5-.57h0c-.44.12-.88.21-1.31.32a1.5,1.5,0,0,0-.73.51c-.17.28-.3.59-.45.88l.06.42a1.16,1.16,0,0,1,.75-.6c.12.14.31.26.35.44-.12.5-.73.55-1.09.82a1.08,1.08,0,0,0-.07.47,1.49,1.49,0,0,0,.29.61l-.3.7.13.15c0,.23.08.45.12.68.15-.25.24-.54.41-.78a8.59,8.59,0,0,1,.87-.4,3.1,3.1,0,0,1,.94.63c.06.21,0,.44.12.64a1.44,1.44,0,0,1,.46.49l.19-.1a2.27,2.27,0,0,0-.42-.76,3.6,3.6,0,0,1,0-.66,3.89,3.89,0,0,0-.77-.56,1.62,1.62,0,0,1,1,.53,3.08,3.08,0,0,0,0,.43,5.54,5.54,0,0,0,.33.51,5.6,5.6,0,0,1,.59-.07,5.67,5.67,0,0,1-.33-.65,2,2,0,0,1,.41.3,3.9,3.9,0,0,0,.46.12c0-.13-.07-.27-.1-.4a.87.87,0,0,1,.34.39c.09.18-.08.34-.16.49a1.25,1.25,0,0,1,.3.26c.09.15,0,.31-.09.44a21,21,0,0,0-1.75,2.66c-.11.48-.09,1-.18,1.46a2.31,2.31,0,0,1-.4.78c0-.29,0-.57-.06-.85,0-.11-.09-.19-.15-.26s-.3-.36-.44-.55c-.18.18-.42.33-.49.58a5.9,5.9,0,0,0-.19,2.54,5.08,5.08,0,0,1,1,.12c.13.66.35,1.29.51,1.93.05.14.08.31.22.39.39.27.73.59,1.11.86q1.22.1,2.43.33a7.76,7.76,0,0,1,1.39.52A5.79,5.79,0,0,1,46,37.7c-.12-.26-.27-.51-.37-.77a8.21,8.21,0,0,1,.07-1.4,1.12,1.12,0,0,0-.64-.88.88.88,0,0,0-.76,0c-.32.15-.58.41-.9.55a.2.2,0,0,1-.25-.23,13.63,13.63,0,0,0,.44-2c0-.38,0-.75,0-1.13,0-.11.07-.19.14-.27a1.76,1.76,0,0,0,.57.55c.32.17.59.4.9.58.09.49.24,1,.37,1.45a1,1,0,0,0,.18.38c.48.68,1.06,1.29,1.53,2,.26.36.43.77.7,1.12a4.54,4.54,0,0,0,.79.66,1.09,1.09,0,0,1,.55-.42c0,.33.07.65.1,1a.82.82,0,0,0,.15.5c.13.18.38.3.38.55a5.76,5.76,0,0,0,.15.91,4,4,0,0,0,.37.79c.15.36.34.7.49,1.06a21.4,21.4,0,0,1,.94,2,4.69,4.69,0,0,1,.47,1.6,7.89,7.89,0,0,1,0,.84,2.43,2.43,0,0,1-.43.81c-.35.41-.23,1.06-.69,1.41a12.39,12.39,0,0,0-5.72,7.05,10,10,0,0,0,0,6.31,7.52,7.52,0,0,0,2,3.07,9.76,9.76,0,0,1-1-1.47,9.22,9.22,0,0,1-.88-5.93,12.21,12.21,0,0,1,7.52-9.23,3,3,0,0,0-.23-.56c-.27.09-.54.19-.82.26a2.36,2.36,0,0,1,.08-.45c.14-.19.33-.35.46-.54a1.23,1.23,0,0,1,.57.51,3,3,0,0,1,.25.71,9.54,9.54,0,0,0,.3,1.68c0,.35.62.27.6-.07a11.93,11.93,0,0,0-.05-1.69c0-.32-.1-.64-.12-1s-.2-.41-.2-.65a6,6,0,0,1,.47.65c.22.25.16.61.22.91s0,.73.12,1.08.09.49.17.72.46.09.52-.13a8.49,8.49,0,0,0,0-1.95c0-.29,0-.57,0-.85s-.3-.47-.44-.7a1.15,1.15,0,0,1,.61.78c.1.43.14.88.22,1.33s0,.85.1,1.26c.12,0,.26,0,.35-.05.24-.22.19-.57.21-.86s-.09-.84-.1-1.26a2,2,0,0,0-.15-.8,8.74,8.74,0,0,0-1.66-1.3c-.18-.69-.33-1.4-.44-2.1-.09-.54-.25-1.07-.38-1.6a11.06,11.06,0,0,0-.76-1.93,4,4,0,0,0-.4-.73,13.62,13.62,0,0,1-1.2-2.15c-.34-.63-.59-1.31-.93-2-.16-.3-.34-.6-.5-.9-.27-.52-.43-1.09-.71-1.61s-.57-1.07-.84-1.61c-.12-.23-.15-.48-.26-.71-.36-.74-.84-1.41-1.26-2.11-.18-.34-.6-.37-.91-.5-.62-.23-1.3-.07-1.93-.25-.2,0-.48-.11-.47-.36a1.81,1.81,0,0,1,.18-.85c.09-.29-.15-.54-.14-.83a6.6,6.6,0,0,0-.64-2.05,2,2,0,0,1,0-.35,5,5,0,0,0-.83-.55,1.59,1.59,0,0,1,.16,1.13c-.06.24.08.47.06.7l.14.12a1.52,1.52,0,0,1,.17-.56,1.51,1.51,0,0,0,.52.7.68.68,0,0,1,.14.88c-.06.18-.21.34-.15.54a1.22,1.22,0,0,1,.1.7c0,.21,0,.47-.25.59-.17-.09-.26-.27-.4-.39s-.25,0-.32-.06a2.71,2.71,0,0,1-.4-.75c-.14,0-.29.12-.41,0a7.48,7.48,0,0,1,0-.82c0-.2.25-.26.29-.45a4.53,4.53,0,0,0,0-.74.94.94,0,0,0-.44.42.19.19,0,0,1-.27.1.94.94,0,0,1-.28-.77l.22.17c.07-.07.12-.16.22-.17a1.81,1.81,0,0,0,.87-.65c0-.28-.16-.51-.29-.73l-.45,0a.51.51,0,0,0,0,.51,1.46,1.46,0,0,1,.19-.16c0,.23-.07.51-.3.64a.72.72,0,0,1-.17-.51c0-.34-.27-.61-.21-1-.22-.22-.48-.39-.71-.6s-.23-.33-.37-.48a1.08,1.08,0,0,0-.82-.15m-14.18-.1h0c-.19.17-.34.38-.53.55a1.67,1.67,0,0,1,1.49.14,1.4,1.4,0,0,0,.92.13.78.78,0,0,0-.44-.74,3.19,3.19,0,0,0-1.44-.08m-.94-.44h0A1.94,1.94,0,0,0,23.45,22c.33-.34.47-.9,1-1a3.84,3.84,0,0,1,1.29-.25,3.28,3.28,0,0,0,.7,0c.14-.07.08-.28-.06-.32a7.33,7.33,0,0,0-1.13-.24,2.23,2.23,0,0,0-1.42.52m15.37-1.13h0a4.38,4.38,0,0,1-1.2,0,5,5,0,0,1-.51.4c-.25.13-.35.41-.54.61,0,.08,0,.17,0,.25a1.84,1.84,0,0,1,1.16,0c.22-.14.47-.41.75-.27a1.85,1.85,0,0,0,.69.37,1.57,1.57,0,0,1,.77-.11c-.1.13-.21.26-.3.39a2.26,2.26,0,0,0,.27.51,2.24,2.24,0,0,0,.5.22,1.49,1.49,0,0,0-.25-.61,3.3,3.3,0,0,1,.41.23c.11.17.06.4.11.59a1.87,1.87,0,0,0,.26.3c.35,0,.7,0,1,0s.39.36.62.49l0,0a1.42,1.42,0,0,0-.15-1,4,4,0,0,0-.93-1.11c-.26-.11-.57,0-.82-.17a2.1,2.1,0,0,1-.4-.44l.46,0c0-.13-.14-.19-.22-.26-.29-.18-.57-.38-.87-.54s-.6.07-.9.11M1.67,18.35h0a6.51,6.51,0,0,0,.39.74c.19.33.64.24,1,.32l-.13-.31c-.24-.08-.5-.13-.74-.23a5.91,5.91,0,0,1-.48-.52m9.67-3.86h0a1.24,1.24,0,0,0,.38.73l.4-.09c-.28-.19-.49-.46-.78-.64m.3-.14h0a3.37,3.37,0,0,0,.83.63c.12.06.23-.06.26-.16.06-.25-.14-.48-.28-.68-.29,0-.51.24-.81.21m1.2-.32h0c.2.23.24.54.42.79s.38.11.57.14c0-.15,0-.3-.05-.44-.11,0-.24.08-.34,0A2.07,2.07,0,0,1,13,14l-.17,0m-7.08-.55h0a14.68,14.68,0,0,1,0,2,5.65,5.65,0,0,1,0,1,13.16,13.16,0,0,1-.66,1.67,2.58,2.58,0,0,0,.48,0,2,2,0,0,0,.33-.38c.14-.2.36-.35.43-.59a10.67,10.67,0,0,0,.12-1.69,5.51,5.51,0,0,0,.49.85,1.8,1.8,0,0,1,.45,1.26A4.53,4.53,0,0,1,7,18.88c-.63,1.17-1,2.46-1.55,3.65a2.18,2.18,0,0,1-.69-.28,5.39,5.39,0,0,0-.54-.4c0,.52.08,1.06.1,1.58a2.71,2.71,0,0,0,.13.94A6.67,6.67,0,0,0,5,25.52a.24.24,0,0,1-.15.38,2.26,2.26,0,0,1-.52,0c.26.18.5.39.76.58s.32.2.31.39c0,.47,0,.94,0,1.41A7.3,7.3,0,0,1,6.16,27a3.24,3.24,0,0,0,.58-1c.29-1.51.52-3,.68-4.55,0-.15,0-.34.16-.44a7.9,7.9,0,0,1,0,1.09c-.07.68-.11,1.35-.19,2A21.49,21.49,0,0,1,7,26.8c0,.15,0,.32-.17.43-.32.31-.68.58-1,.91a3.67,3.67,0,0,0-.24.73l.16.1a8.24,8.24,0,0,0,1.52-1c.45,0,.9-.05,1.35-.05a9,9,0,0,0-1.22.57c.08.1.15.21.22.31.58-.18,1.16-.34,1.73-.53a3.42,3.42,0,0,1,.72-.16,16.83,16.83,0,0,1-1.42-1,.7.7,0,0,1-.27-.5c0-1.51,0-3,0-4.52a14.94,14.94,0,0,0-.08-1.89c0-.61-.19-1.21-.24-1.82,0-.32-.08-.63-.08-.95a15.16,15.16,0,0,1,.75,2.63A4.72,4.72,0,0,0,9,21c.42.22.85.42,1.28.61.09.05.32.12.31-.05a15.81,15.81,0,0,0-1.17-3.23,3.56,3.56,0,0,1-.35-1.37c-.3-.25-.62-.47-.89-.73a3.62,3.62,0,0,0-.37-.56A12.92,12.92,0,0,1,7,14.23a.8.8,0,0,1-.43-.13l-.77-.62m7.47.45h0c.08.12.23.15.35.21a1.05,1.05,0,0,1,.64-.49l.13-.28a.82.82,0,0,1-.38-.2.69.69,0,0,0-.74.76m-8.57.65h0a1,1,0,0,1-.21.47,12.41,12.41,0,0,1-.84,1.29c-.25.24-.54.45-.8.68A3.14,3.14,0,0,0,4,17a6.71,6.71,0,0,0,.75-.85,4.49,4.49,0,0,1-.5,1.47c.37-.35.66-.77,1-1.14,0-.6,0-1.2,0-1.8a12.3,12.3,0,0,0-.38-2.25,18,18,0,0,0-.23,2.2m3.84-2h0a.42.42,0,0,1-.38.4,6.29,6.29,0,0,1-.84,1.26,8.7,8.7,0,0,1,.5.83,3.93,3.93,0,0,0,.44.55c.11.15.17.34.32.44l.81.59a15.37,15.37,0,0,0,1.59.75,2.7,2.7,0,0,0,.08-.9,1.72,1.72,0,0,1-.76-.75c0-.1-.15-.21-.06-.32.23.15.43.37.73.31a2.54,2.54,0,0,1-.2-.52,3.06,3.06,0,0,0,.07-.4,4.33,4.33,0,0,0-.22-.56,1.9,1.9,0,0,0,.18-1,3.89,3.89,0,0,1,.66.29,1,1,0,0,1,.23-.46c0,.24,0,.48,0,.72a1,1,0,0,0,.22.31,1,1,0,0,0,.29-.3c.23-.34,0-.74-.08-1.1a1.9,1.9,0,0,1-1.32-.16,3.77,3.77,0,0,1-.81.17,5.12,5.12,0,0,1,.27-.52c-.59.08-1.15.27-1.73.37m4.2-1.51h0a4.5,4.5,0,0,0-.29,1.09c0,.18-.13.36-.05.54.12.34.17.7.26,1,.35-.17.55-.52.86-.73a4.36,4.36,0,0,1,.51-.17,2.06,2.06,0,0,0,.1-.69c-.13-.15-.31-.26-.39-.44a2.81,2.81,0,0,1-.22-.75c-.25,0-.56-.08-.78.1m-1-.36h0a1.3,1.3,0,0,0-.39,1,.24.24,0,0,0,.14.28.9.9,0,0,0,.72-.08,7.9,7.9,0,0,1,.12-.85c.18-.1.36-.2.54-.28,0-.08,0-.16-.07-.25a1.37,1.37,0,0,0-1.06.21m-7.89-.46h0a3.2,3.2,0,0,0-.44,1.91,5.2,5.2,0,0,1,.39-.64c.19.4.28.85.47,1.25.09.22.14.45.23.67a13.45,13.45,0,0,0,0-1.68c-.2-.52-.67-.93-.66-1.51m6.34-2.95h0a4.56,4.56,0,0,0-1.1.91c-.25.68-.32,1.43-.51,2.13a8.52,8.52,0,0,0-.93,2c.13-.16.27-.34.5-.32a.8.8,0,0,1,.22-.7l.39.32c.15-.18,0-.51.28-.63a.89.89,0,0,1,.94.55l.36.11c0-.23-.2-.58.06-.73a1.31,1.31,0,0,1,.89-.1,1.28,1.28,0,0,1,.77-.58,1.29,1.29,0,0,0,.22-.63l.24.29a.61.61,0,0,0,.58-.1c-.33-.28-.58-.84-.21-1.19a1.39,1.39,0,0,0,.12.7c.16.3.61.42.63.8,0,.2-.2.3-.33.41.21,0,.51.18.66-.05s0-.67-.06-1a1,1,0,0,1,.25,1.11c-.06.16-.25.2-.4.27l.14.24a3.28,3.28,0,0,1,1,.15c.15,0,.11.26.05.37A3,3,0,0,0,14.82,13a.56.56,0,0,0-.63-.15.28.28,0,0,0-.06.25,1.14,1.14,0,0,0,.66.27.21.21,0,0,0,.2-.21,5.53,5.53,0,0,1,0-.91,5.41,5.41,0,0,1,.27-.77,2.61,2.61,0,0,0,.09-.83,1.16,1.16,0,0,1-.76-.57,5.49,5.49,0,0,1-.16-1c.24.21.2.56.32.81a3.58,3.58,0,0,0,.71.4,1.63,1.63,0,0,1,.38-.22,8.13,8.13,0,0,0-1.1-1.56,3.17,3.17,0,0,0-1.28-1,3.4,3.4,0,0,0-1.43-.33,10.73,10.73,0,0,0-1.88.12M7,3.19H7c-.08.23-.07.6.21.69a7.32,7.32,0,0,0,2.33-.36c.17-.07.15-.27.15-.42a17.31,17.31,0,0,0-2-.25c-.28-.09-.21-.41-.2-.63a2.63,2.63,0,0,0-.46,1M3.5,1.9h0c-.1.34-.24.67-.36,1-.15.11-.33.21-.4.39-.18.36-.37.71-.52,1.09C2,5,1.58,5.59,1.31,6.22a6.44,6.44,0,0,0-1,2.89,9.44,9.44,0,0,1,0,1.68,2,2,0,0,0,.12.88,9.75,9.75,0,0,1,.45,2.94,4.25,4.25,0,0,1,.46.27A10.07,10.07,0,0,0,1,13.25a15.17,15.17,0,0,0-.46-1.76,2.44,2.44,0,0,1,.28-1.12c.24-.58.39-1.19.62-1.77a15.37,15.37,0,0,1,.88-2.55A4.5,4.5,0,0,1,3,4.85c.21-.2.49-.28.71-.48a.18.18,0,0,0,0-.21c-.17-.18-.44-.24-.58-.44s.23-.35.27-.56a3.41,3.41,0,0,1,.11-1,2.57,2.57,0,0,1,.25-.53c.09-.14.25,0,.37,0s-.09-.31-.27-.28a1.12,1.12,0,0,0-.38.5m2-1.16h0C5,1,4.74,1.56,4.36,2A2,2,0,0,0,4,2.7,11.41,11.41,0,0,1,5.08,1.64c.23-.17.22-.51.42-.7s.25-.11.37-.15A.29.29,0,0,0,5.52.74M5.16,2.25h0a.72.72,0,0,0,.64,0c.26-.44.61-.83.84-1.29A.43.43,0,0,1,7,.72l.07.2L7.19.78C7.1.67,7,.52,6.83.57A3.45,3.45,0,0,0,5.16,2.25M7.34,1h0c-.23.31-.59.48-.83.78a1.57,1.57,0,0,0-.45,1c.12-.18.17-.41.36-.54a1.24,1.24,0,0,1,.8-.19L7,1.92c.21-.09.5-.17.53-.43S8,1,8.22.63c.08-.16.26-.2.41-.26C8.56.29,8.51.16,8.39.19,7.91.25,7.65.7,7.34,1m0-.36C7.66.37,8,0,8.46,0a.41.41,0,0,1,.27.64c-.33.56-1,.9-1.17,1.54a.58.58,0,0,0,.28.47c.27,0,.55,0,.81,0a2.91,2.91,0,0,1,1.56.49.44.44,0,0,1,0,.64,1.17,1.17,0,0,1-.86.31,12.42,12.42,0,0,0-1.82.24,12.18,12.18,0,0,1-1.91,0A1,1,0,0,0,5,4.68a2.84,2.84,0,0,0-.51,1,3.61,3.61,0,0,0-.31,1.48,6.05,6.05,0,0,1,0,1.9,4.45,4.45,0,0,0,0,1.21c0,.44.35.77.53,1.14A16.2,16.2,0,0,0,5.54,13a1.4,1.4,0,0,0,.38.3c.27.18.49.41.75.59s.47.1.55-.11.37-.56.24-.88a2.26,2.26,0,0,1,0-1.18,7.74,7.74,0,0,0,.79-1.37c.22-.54.15-1.15.34-1.71A2.47,2.47,0,0,1,9.83,7a4.81,4.81,0,0,1,3.24,0,3.93,3.93,0,0,1,1.32.71,10,10,0,0,1,.83,1A12.16,12.16,0,0,1,16,9.84a.43.43,0,0,1,0,.44c-.14.09-.37.11-.41.3a5.34,5.34,0,0,0-.05.69c0,.42-.32.78-.36,1.19s0,.68-.05,1c-.22.11-.5,0-.71.13a1.56,1.56,0,0,0-.48.83c-.05.22.09.44.08.66-.18.22-.52.28-.63.56a1.43,1.43,0,0,1-.27.46c-.21,0-.45-.07-.6.13a.79.79,0,0,1-.58-.13,2.16,2.16,0,0,1-.51,0,10.31,10.31,0,0,1-.16,1.57.23.23,0,0,1-.33.15c-.52-.25-1-.55-1.5-.84-.24.6.24,1.14.46,1.67a22.23,22.23,0,0,1,.84,2.09,27.41,27.41,0,0,1,.71,2.84c.05.55.17,1.09.24,1.64.17.8.36,1.59.55,2.39a4.53,4.53,0,0,1,.08.74,3.54,3.54,0,0,0,1,.14c.94,0,1.86.28,2.79.4.19.2.47.37.53.66.15.5.32,1,.45,1.51a1.2,1.2,0,0,1,0,.38l-.33-.17c-.06,1.18.25,2.35.2,3.53.08,1.63.15,3.26.24,4.9.14,1.48.27,3,.33,4.46.23,0,.49.1.7,0,.88-.44,1.78-.84,2.67-1.25a3.81,3.81,0,0,0-.28-.62c-.28-.44-.44-.95-.69-1.41a10,10,0,0,1-.61-1.23c-.14-.38-.35-.73-.5-1.11-.29-.78-.68-1.5-1-2.26a3.53,3.53,0,0,1-.32-.75c0-.79-.09-1.57-.09-2.35.07.26.12.54.17.81a17.2,17.2,0,0,0,1.23,2.42c.21.41.42.81.61,1.22a4.65,4.65,0,0,1-.28-1.05c-.62-1.69-1.26-3.36-1.88-5,0-.33.47-.49.38-.84s-.1-1-.16-1.47a5.89,5.89,0,0,0-.68-.53c-.08-.42,0-.86-.14-1.27s-.17-.92-.29-1.38c-.23-.83-.31-1.69-.46-2.54a2.89,2.89,0,0,1,0-.5c.34.57.44,1.24.78,1.8a2.52,2.52,0,0,0-.19-1,5.42,5.42,0,0,0-.36-1.05,2.77,2.77,0,0,1-.25-1.17c-.18-.17-.38-.31-.57-.46a5.15,5.15,0,0,1-.15-.68,2.33,2.33,0,0,1-.27-.35,6.68,6.68,0,0,1,0-1c-.33-.37-.61-.78-1-1.13a5.64,5.64,0,0,1-1.14-1.38,3.79,3.79,0,0,1,1,.63,11.9,11.9,0,0,1,1.39,1.69c.17.23.07.52.09.78s.16.33.25.48a1.62,1.62,0,0,1,.2.68,2.63,2.63,0,0,1,.45.43c.13.34.16.72.26,1.07A8.08,8.08,0,0,1,17,24c0,.24.19.48.11.73a6.73,6.73,0,0,0-.07,2.86c.05.3-.06.71.29.86s.65-.08.95.07a2,2,0,0,1,.68.65c.19.25.57.18.77.43a3.65,3.65,0,0,0,1.65,1l.29-.16a7.94,7.94,0,0,0,.06-1.54c0-.45-.16-.88-.16-1.33a7.32,7.32,0,0,0-.21-.9,2.31,2.31,0,0,1,.15-1.58,4.44,4.44,0,0,1,.38-.67A5.19,5.19,0,0,0,23,22.55a1.68,1.68,0,0,0,.19-.64,7.39,7.39,0,0,1,.22-1.33A6.72,6.72,0,0,1,25,20a2.86,2.86,0,0,1,.82.12c.24.06.5.08.74.16a.56.56,0,0,1,.05.7c.33.24.19.74.48,1a.67.67,0,0,1,.22.45c.06.2-.15.32-.21.49a1.56,1.56,0,0,0,0,.43l-.18.33a1.34,1.34,0,0,1,.19.7c-.15.2-.44.32-.46.6a4.51,4.51,0,0,0,.1,1.9.4.4,0,0,0,.37.32,6.25,6.25,0,0,0,1.93,0,2.07,2.07,0,0,1-.08.7,1.39,1.39,0,0,0,.16.35,1.69,1.69,0,0,0-.13.49,3.63,3.63,0,0,1,.15.67c-.2,0-.46.06-.58.25s.07.37,0,.54-.35.32-.33.57a1.13,1.13,0,0,1,.58.56c0,.29-.25.53-.23.83,0,.14,0,.31.18.37a1.26,1.26,0,0,0,.58.08A14.49,14.49,0,0,0,32.2,32a23.4,23.4,0,0,1,5.35-1.91c.14,0,.32-.08.37-.23a.85.85,0,0,0-.11-.8c-.35-.41-1-.54-1.22-1-.15-.22,0-.49,0-.73a.85.85,0,0,0-.14-.53c-.1-.2,0-.44-.12-.64s-.45-.34-.6-.58a1.9,1.9,0,0,1,.19-1.19A2.57,2.57,0,0,0,36,23c0-.34.38-.46.4-.77a1.71,1.71,0,0,0-.21-.57,2.35,2.35,0,0,0,.48-.61,2.15,2.15,0,0,0,.09-.61c.19-.23.32-.53.59-.68s.4-.37.66-.45a3.28,3.28,0,0,0,1,0c.41-.07.85-.37,1.26-.12a7.34,7.34,0,0,1,1.67,1.21,5.7,5.7,0,0,1,1.2,1.39c.23.38.11.83.25,1.24-.07.24-.27.49-.16.76.15.46.38.89.53,1.35s0,.74.2,1.08a1.38,1.38,0,0,1-.12,1,.36.36,0,0,0,.23.5A9.1,9.1,0,0,1,46,28a2.79,2.79,0,0,1,.83.36,4.65,4.65,0,0,1,.6.87,7.85,7.85,0,0,1,.8,1.44,26.58,26.58,0,0,0,1.33,2.74c.14.31.23.64.39.94.64,1.26,1.37,2.47,2,3.74.15.31.35.6.48.92a3.89,3.89,0,0,0,.43.63,9.6,9.6,0,0,1,1.2,3.23c.13.62.37,1.23.46,1.86.07.32.13.64.2,1a.8.8,0,0,0,.37.48c.7.43,1.36.94,2.08,1.36a.88.88,0,0,1,.32.39,12.44,12.44,0,0,1,1.39.42,2.55,2.55,0,0,1,.84.53,8.1,8.1,0,0,0-2.17-.75q0,.19.06.42a7.48,7.48,0,0,1,6.12,5,10.3,10.3,0,0,1-.32,7.21,12.33,12.33,0,0,1-6,6.46c-.39.2-.81.32-1.2.51l.47.15.21.7q-26.71,0-53.44,0l.06-.45c.18-.13.42-.23.47-.46s0-.45.12-.65a9.32,9.32,0,0,0,.74-1.21,14,14,0,0,0,.49-1.42,1.94,1.94,0,0,0,0-.76,19,19,0,0,1-.27-3.2c-.25-.13-.32-.41-.43-.64a8.08,8.08,0,0,0-.37-1c-.06-.14-.18-.28-.12-.44.09-.44.22-.88.33-1.32a1.94,1.94,0,0,0,0-.76c0-.49,0-1-.13-1.47a.75.75,0,0,1,0-.42c.17-.45.33-.91.47-1.37s0-1,.1-1.51a6.37,6.37,0,0,1,.39-.73,2.52,2.52,0,0,0,.39-1.29,2,2,0,0,0-.78-1.25,2.43,2.43,0,0,1-.55-.56c0-.57,0-1.13,0-1.69a13.18,13.18,0,0,1-.25-3.07c0-1.3,0-2.6-.09-3.9,0-.54,0-1.08,0-1.62,0-1,.13-2,.18-3a29.73,29.73,0,0,1,1.29-3.6A7,7,0,0,0,6,30a22.46,22.46,0,0,0-1.49-2.25,22,22,0,0,1-1.07-2.49,13.47,13.47,0,0,1-.45-1.9c-.1-.51-.23-1-.33-1.53A7.61,7.61,0,0,0,1.28,18.4a2.12,2.12,0,0,1-.36-.64A17.85,17.85,0,0,1,.5,14.42a15.7,15.7,0,0,0-.38-2.64,6.83,6.83,0,0,1-.1-2A6.22,6.22,0,0,1,.16,8.14,17.67,17.67,0,0,1,1.29,5.63,14,14,0,0,0,2,4.18c.14-.36.34-.7.5-1,.07-.17.25-.25.36-.39.23-.38.29-.87.62-1.19.15-.15.29-.36.52-.31a.61.61,0,0,1,.28.45A3.16,3.16,0,0,1,5.64.52c.24-.09.37.15.4.34.3-.2.62-.48,1-.42.13,0,.2.13.28.21" transform="translate(0 0)"/><path class="cls-3" d="M13.55,8.81a2.48,2.48,0,0,1,.18.89,1,1,0,0,1-.32-.29,1.51,1.51,0,0,0,.14-.6" transform="translate(0 0)"/><path class="cls-3" d="M11.5,17a2.43,2.43,0,0,1,.44.41,13.18,13.18,0,0,1,1,1.22,4.76,4.76,0,0,1,.82,1.3c-.26,0-.36-.3-.52-.46a6.6,6.6,0,0,0-1-1.07,5.75,5.75,0,0,1-.79-.77q0-.32,0-.63" transform="translate(0 0)"/><path class="cls-3" d="M38.23,23c0-.14,0-.36.15-.42a3.63,3.63,0,0,1,1.48.44c-.06.25-.39.17-.58.19s-.13.32-.2.48a2.78,2.78,0,0,0-.75-.15c-.23-.1-.11-.36-.1-.54" transform="translate(0 0)"/><path class="cls-3" d="M37.2,25.25c-.2-.24,0-.75.34-.71a1.38,1.38,0,0,1,.89.42,2.61,2.61,0,0,1-.61.11,3.38,3.38,0,0,1-.62.18" transform="translate(0 0)"/><path class="cls-3" d="M42.54,28c.1,0,.2,0,.3.05a6,6,0,0,0,.76.13c-.09.1-.16.23-.28.29a11.81,11.81,0,0,0-1.37.82c.08-.34.45-.51.54-.84,0-.15,0-.3,0-.45" transform="translate(0 0)"/><path class="cls-3" d="M44.93,40.08a3.33,3.33,0,0,1-1.07-1.2,4.09,4.09,0,0,0,2.47.86c-.14.09-.34.09-.41.25a.53.53,0,0,0,.28.16,2,2,0,0,0,.94-.13c0-.09,0-.2,0-.29a2.52,2.52,0,0,1,.46-.66,2.08,2.08,0,0,1-.14,1.07c0,.23-.31.26-.49.33a2.34,2.34,0,0,1-2-.39" transform="translate(0 0)"/><path class="cls-3" d="M71.08,37.34A5.13,5.13,0,0,0,72,40.66a3.33,3.33,0,0,0,2.71,1.13,3.28,3.28,0,0,0,2.7-1.13,5.17,5.17,0,0,0,.91-3.32,5.12,5.12,0,0,0-.91-3.29,3.25,3.25,0,0,0-2.69-1.12A3.3,3.3,0,0,0,72,34.06a5,5,0,0,0-.93,3.28m8.57,0a5.91,5.91,0,0,1-1.3,4.06,4.58,4.58,0,0,1-3.63,1.48,4.64,4.64,0,0,1-3.67-1.45,6,6,0,0,1-1.29-4.1,5.9,5.9,0,0,1,1.29-4.07,4.68,4.68,0,0,1,3.68-1.45,4.58,4.58,0,0,1,3.62,1.47,5.91,5.91,0,0,1,1.3,4.06" transform="translate(0 0)"/><path class="cls-3" d="M85.53,41.86c1.5,0,2.25-1,2.25-2.86s-.68-2.73-2-2.73a2.69,2.69,0,0,0-1.08.23,3.67,3.67,0,0,0-1,.61,3.11,3.11,0,0,0-.66.79,5.77,5.77,0,0,0,.61,3,2,2,0,0,0,1.87,1m-3.74-4a9,9,0,0,1,.78-4.13,3.51,3.51,0,0,1,2.48-1.85c1.4-.3,2.63-.54,3.7-.73L89,32.27c-1.7.28-2.92.51-3.65.67a2.41,2.41,0,0,0-1.6,1.15,5.23,5.23,0,0,0-.58,2.47h.09a3.11,3.11,0,0,1,1.17-1,3.48,3.48,0,0,1,1.51-.35,2.92,2.92,0,0,1,2.32,1,4,4,0,0,1,.83,2.67,4.25,4.25,0,0,1-1,3,3.45,3.45,0,0,1-2.69,1.06,3.12,3.12,0,0,1-2.66-1.3,6.12,6.12,0,0,1-1-3.68" transform="translate(0 0)"/></g><polygon class="cls-3" points="97.55 41.68 101.13 41.68 101.13 34.69 102.35 34.69 102.35 41.68 103.5 41.68 103.5 45.51 102.27 45.51 102.27 42.73 91.54 42.73 91.54 34.69 92.76 34.69 92.76 41.68 96.33 41.68 96.33 34.69 97.55 34.69 97.55 41.68"/><g class="cls-2"><path class="cls-3" d="M108.48,35.55a2,2,0,0,0-1.55.63,2.9,2.9,0,0,0-.68,1.75h4.21a2.71,2.71,0,0,0-.51-1.77,1.8,1.8,0,0,0-1.47-.61m.33,7.33A3.69,3.69,0,0,1,106,41.79a4.19,4.19,0,0,1-1-3,4.69,4.69,0,0,1,1-3.1,3.21,3.21,0,0,1,2.58-1.15,3.06,3.06,0,0,1,2.4,1,3.82,3.82,0,0,1,.88,2.63v.77h-5.55a3.15,3.15,0,0,0,.72,2.16,2.47,2.47,0,0,0,1.91.74,6.58,6.58,0,0,0,2.58-.55v1.09a6.05,6.05,0,0,1-1.23.4,6.91,6.91,0,0,1-1.39.12" transform="translate(0 0)"/><path class="cls-3" d="M117.43,42.88a3.45,3.45,0,0,1-2.72-1.08,4.41,4.41,0,0,1-1-3,4.56,4.56,0,0,1,1-3.12,3.49,3.49,0,0,1,2.78-1.11,5.81,5.81,0,0,1,1.16.13,3.75,3.75,0,0,1,.91.29l-.37,1a5.47,5.47,0,0,0-.89-.27,4,4,0,0,0-.84-.1c-1.64,0-2.46,1-2.46,3.13a3.73,3.73,0,0,0,.6,2.28,2.09,2.09,0,0,0,1.78.8,5.38,5.38,0,0,0,2.06-.44v1.08a4.39,4.39,0,0,1-2,.42" transform="translate(0 0)"/></g><polygon class="cls-3" points="127.16 35.72 124.54 35.72 124.54 42.73 123.32 42.73 123.32 35.72 120.73 35.72 120.73 34.67 127.16 34.67 127.16 35.72"/><g class="cls-2"><path class="cls-3" d="M134.68,40.31a1,1,0,0,0-.5-1,3.47,3.47,0,0,0-1.64-.29h-2.22v2.65h2.25c1.4,0,2.11-.47,2.11-1.4m-.23-3.5A.86.86,0,0,0,134,36a2.88,2.88,0,0,0-1.37-.25h-2.31V38h2.07a3.26,3.26,0,0,0,1.6-.28,1,1,0,0,0,.46-.91m1.19-.12a1.53,1.53,0,0,1-.45,1.2,2.53,2.53,0,0,1-1.27.55v.06a2.68,2.68,0,0,1,1.51.61,1.72,1.72,0,0,1,.47,1.28,2,2,0,0,1-.83,1.73,4,4,0,0,1-2.41.61H129.1V34.67h3.54c2,0,3,.68,3,2" transform="translate(0 0)"/><path class="cls-3" d="M141.09,35.55a2,2,0,0,0-1.54.63,2.84,2.84,0,0,0-.68,1.75h4.21a2.71,2.71,0,0,0-.51-1.77,1.83,1.83,0,0,0-1.48-.61m.34,7.33a3.7,3.7,0,0,1-2.83-1.09,4.19,4.19,0,0,1-1-3,4.69,4.69,0,0,1,1-3.1,3.21,3.21,0,0,1,2.58-1.15,3.06,3.06,0,0,1,2.4,1,3.82,3.82,0,0,1,.88,2.63v.77h-5.55a3.2,3.2,0,0,0,.71,2.16,2.51,2.51,0,0,0,1.92.74,6.49,6.49,0,0,0,2.57-.55v1.09a6.18,6.18,0,0,1-1.22.4,7,7,0,0,1-1.39.12" transform="translate(0 0)"/></g><polygon class="cls-3" points="148.04 34.67 148.04 38.05 152.56 38.05 152.56 34.67 153.78 34.67 153.78 42.73 152.56 42.73 152.56 39.1 148.04 39.1 148.04 42.73 146.82 42.73 146.82 34.67 148.04 34.67"/><polygon class="cls-3" points="157.94 34.67 157.94 38.05 162.45 38.05 162.45 34.67 163.67 34.67 163.67 42.73 162.45 42.73 162.45 39.1 157.94 39.1 157.94 42.73 156.71 42.73 156.71 34.67 157.94 34.67"/><g class="cls-2"><path class="cls-3" d="M168.81,41.87a2.45,2.45,0,0,0,1.79-.62,2.33,2.33,0,0,0,.65-1.75v-.73l-1.22,0a4.49,4.49,0,0,0-2.1.45,1.37,1.37,0,0,0-.64,1.25,1.25,1.25,0,0,0,.4,1,1.65,1.65,0,0,0,1.12.34m2.76.86-.25-1.14h0a3.51,3.51,0,0,1-1.21,1,3.64,3.64,0,0,1-1.49.27,2.65,2.65,0,0,1-1.88-.62,2.21,2.21,0,0,1-.68-1.75c0-1.63,1.3-2.49,3.9-2.56l1.37-.05v-.5a2.05,2.05,0,0,0-.41-1.4,1.68,1.68,0,0,0-1.3-.45,5.27,5.27,0,0,0-2.28.61l-.38-.93a6.38,6.38,0,0,1,1.31-.51,5.7,5.7,0,0,1,1.42-.18,3.08,3.08,0,0,1,2.14.64,2.68,2.68,0,0,1,.69,2v5.5Z" transform="translate(0 0)"/><path class="cls-3" d="M175.89,37.06c0,.93.68,1.39,2,1.39h2V35.73h-2.22c-1.18,0-1.78.44-1.78,1.33m-.15,5.67h-1.43l2.32-3.4a2.49,2.49,0,0,1-1.43-.8,2.24,2.24,0,0,1-.5-1.49,2.18,2.18,0,0,1,.75-1.74,3.09,3.09,0,0,1,2.07-.63h3.59v8.06h-1.22V39.51h-2Z" transform="translate(0 0)"/></g><polygon class="cls-3" points="189.53 42.73 188.31 42.73 188.31 34.67 195.07 34.67 195.07 42.73 193.84 42.73 193.84 35.73 189.53 35.73 189.53 42.73"/><g class="cls-2"><path class="cls-3" d="M200.21,41.87a2.45,2.45,0,0,0,1.79-.62,2.29,2.29,0,0,0,.65-1.75v-.73l-1.22,0a4.49,4.49,0,0,0-2.1.45,1.37,1.37,0,0,0-.64,1.25,1.25,1.25,0,0,0,.4,1,1.67,1.67,0,0,0,1.12.34m2.76.86-.24-1.14h-.06a3.43,3.43,0,0,1-1.21,1,3.58,3.58,0,0,1-1.49.27,2.65,2.65,0,0,1-1.88-.62,2.21,2.21,0,0,1-.68-1.75c0-1.63,1.3-2.49,3.9-2.56l1.37-.05v-.5a2,2,0,0,0-.41-1.4,1.67,1.67,0,0,0-1.3-.45,5.34,5.34,0,0,0-2.28.61l-.38-.93a6.38,6.38,0,0,1,1.31-.51,5.76,5.76,0,0,1,1.42-.18,3.06,3.06,0,0,1,2.14.64,2.68,2.68,0,0,1,.69,2v5.5Z" transform="translate(0 0)"/><path class="cls-3" d="M212.75,42.73h-1.24v-7h-2.42a29.72,29.72,0,0,1-.55,4.15,5.71,5.71,0,0,1-.92,2.25,1.73,1.73,0,0,1-1.43.72,1.83,1.83,0,0,1-.63-.09v-.91a1.38,1.38,0,0,0,.37,0c.56,0,1-.6,1.34-1.79a28.72,28.72,0,0,0,.76-5.43h4.72Z" transform="translate(0 0)"/><path class="cls-3" d="M217.88,41.87a2.45,2.45,0,0,0,1.79-.62,2.3,2.3,0,0,0,.66-1.75v-.73l-1.23,0a4.49,4.49,0,0,0-2.1.45,1.37,1.37,0,0,0-.64,1.25,1.25,1.25,0,0,0,.4,1,1.67,1.67,0,0,0,1.12.34m2.76.86-.24-1.14h-.06a3.4,3.4,0,0,1-1.2,1,3.66,3.66,0,0,1-1.5.27,2.65,2.65,0,0,1-1.88-.62,2.25,2.25,0,0,1-.68-1.75c0-1.63,1.3-2.49,3.91-2.56l1.36-.05v-.5A2.05,2.05,0,0,0,220,36a1.7,1.7,0,0,0-1.31-.45,5.34,5.34,0,0,0-2.28.61l-.38-.93a6.61,6.61,0,0,1,1.31-.51,5.76,5.76,0,0,1,1.42-.18,3,3,0,0,1,2.14.64,2.69,2.69,0,0,1,.7,2v5.5Z" transform="translate(0 0)"/></g><polygon class="cls-3" points="229.84 35.72 227.23 35.72 227.23 42.73 226 42.73 226 35.72 223.41 35.72 223.41 34.67 229.84 34.67 229.84 35.72"/><g class="cls-2"><path class="cls-3" d="M234,41.87a2.47,2.47,0,0,0,1.79-.62,2.33,2.33,0,0,0,.65-1.75v-.73l-1.22,0a4.49,4.49,0,0,0-2.1.45,1.38,1.38,0,0,0-.65,1.25,1.26,1.26,0,0,0,.41,1,1.65,1.65,0,0,0,1.12.34m2.76.86-.25-1.14h-.06a3.4,3.4,0,0,1-1.2,1,3.66,3.66,0,0,1-1.5.27,2.64,2.64,0,0,1-1.87-.62,2.22,2.22,0,0,1-.69-1.75c0-1.63,1.31-2.49,3.91-2.56l1.37-.05v-.5a2.05,2.05,0,0,0-.41-1.4,1.68,1.68,0,0,0-1.3-.45,5.34,5.34,0,0,0-2.29.61l-.37-.93a6.38,6.38,0,0,1,1.31-.51,5.7,5.7,0,0,1,1.42-.18,3.08,3.08,0,0,1,2.14.64,2.68,2.68,0,0,1,.69,2v5.5Z" transform="translate(0 0)"/><path class="cls-3" d="M72.49,63.35A1.8,1.8,0,0,0,71,64a2.73,2.73,0,0,0-.53,1.77A2.75,2.75,0,0,0,71,67.55a1.78,1.78,0,0,0,1.47.63A4.66,4.66,0,0,0,73.81,68v.6a3.93,3.93,0,0,1-1.43.23A2.37,2.37,0,0,1,70.47,68a3.38,3.38,0,0,1-.67-2.24,3.81,3.81,0,0,1,.32-1.6,2.46,2.46,0,0,1,.94-1,2.65,2.65,0,0,1,1.43-.37,3.27,3.27,0,0,1,1.54.34l-.27.59a2.88,2.88,0,0,0-1.27-.32" transform="translate(0 0)"/></g><rect class="cls-3" x="75.02" y="62.82" width="0.65" height="5.89"/><g class="cls-2"><path class="cls-3" d="M80.38,62.82h.7l-2,5.89h-.64l-2-5.89h.69l1.28,3.81a9.85,9.85,0,0,1,.35,1.28,11.94,11.94,0,0,1,.36-1.3Z" transform="translate(0 0)"/></g><rect class="cls-3" x="81.83" y="62.82" width="0.65" height="5.89"/><g class="cls-2"><path class="cls-3" d="M86.4,63.35a1.8,1.8,0,0,0-1.46.65,2.67,2.67,0,0,0-.53,1.77,2.75,2.75,0,0,0,.51,1.78,1.78,1.78,0,0,0,1.47.63A4.66,4.66,0,0,0,87.72,68v.6a3.93,3.93,0,0,1-1.43.23A2.36,2.36,0,0,1,84.38,68a3.33,3.33,0,0,1-.67-2.24,3.81,3.81,0,0,1,.32-1.6,2.46,2.46,0,0,1,.94-1,2.65,2.65,0,0,1,1.43-.37,3.27,3.27,0,0,1,1.54.34l-.27.59a2.88,2.88,0,0,0-1.27-.32" transform="translate(0 0)"/><path class="cls-3" d="M93.34,63.35a1.78,1.78,0,0,0-1.45.65,3.24,3.24,0,0,0,0,3.55,1.77,1.77,0,0,0,1.46.63A4.72,4.72,0,0,0,94.67,68v.6a4,4,0,0,1-1.44.23,2.34,2.34,0,0,1-1.9-.79,3.33,3.33,0,0,1-.67-2.24,3.66,3.66,0,0,1,.32-1.6,2.44,2.44,0,0,1,.93-1,2.71,2.71,0,0,1,1.44-.37,3.3,3.3,0,0,1,1.54.34l-.28.59a2.84,2.84,0,0,0-1.27-.32" transform="translate(0 0)"/></g><polygon class="cls-3" points="99.47 62.82 99.47 65.33 96.52 65.33 96.52 62.82 95.87 62.82 95.87 68.71 96.52 68.71 96.52 65.94 99.47 65.94 99.47 68.71 100.12 68.71 100.12 62.82 99.47 62.82"/><g class="cls-2"><path class="cls-3" d="M104.25,66.22l-.65-1.82c-.08-.23-.17-.52-.26-.85a5.88,5.88,0,0,1-.24.85l-.66,1.82Zm.9,2.49-.69-1.87h-2.25l-.68,1.87h-.66l2.21-5.91h.55l2.19,5.91Z" transform="translate(0 0)"/><path class="cls-3" d="M109.05,68.71l-1.9-5.22h0c0,.41.06.91.06,1.47v3.75h-.6V62.82h1l1.77,4.86h0l1.78-4.86h1v5.89h-.66V64.92c0-.44,0-.91.06-1.42h0l-1.91,5.21Z" transform="translate(0 0)"/><path class="cls-3" d="M114.28,65.92v2.21h1.17a1.63,1.63,0,0,0,1-.28,1,1,0,0,0,.34-.86.94.94,0,0,0-.35-.81,1.8,1.8,0,0,0-1.06-.26Zm0-.58h1.07a1.74,1.74,0,0,0,1-.22.91.91,0,0,0,.3-.77.79.79,0,0,0-.34-.71,2,2,0,0,0-1.07-.22h-1Zm-.65-2.52h1.58a2.87,2.87,0,0,1,1.61.35,1.28,1.28,0,0,1,.5,1.11,1.32,1.32,0,0,1-.28.87,1.34,1.34,0,0,1-.81.44v0A1.34,1.34,0,0,1,117.51,67a1.56,1.56,0,0,1-.51,1.23,2.12,2.12,0,0,1-1.42.44h-2Z" transform="translate(0 0)"/></g><polygon class="cls-3" points="118.69 62.82 118.69 68.71 121.81 68.71 121.81 68.1 119.34 68.1 119.34 65.93 121.66 65.93 121.66 65.33 119.34 65.33 119.34 63.43 121.81 63.43 121.81 62.82 118.69 62.82"/><g class="cls-2"><path class="cls-3" d="M123.68,65.67h.9a1.52,1.52,0,0,0,1-.28,1.13,1.13,0,0,0,.32-.87,1,1,0,0,0-.33-.84,1.72,1.72,0,0,0-1-.26h-.85Zm0,.59v2.45H123V62.82h1.54a2.32,2.32,0,0,1,1.52.42,1.72,1.72,0,0,1-.63,2.82L127,68.71h-.76l-1.36-2.45Z" transform="translate(0 0)"/><path class="cls-3" d="M130.28,65.76a2.89,2.89,0,0,0,.48,1.81,1.68,1.68,0,0,0,1.41.62,1.64,1.64,0,0,0,1.4-.62,3.63,3.63,0,0,0,0-3.61,1.65,1.65,0,0,0-1.4-.62,1.68,1.68,0,0,0-1.41.62,2.88,2.88,0,0,0-.48,1.8m4.45,0a3.31,3.31,0,0,1-.68,2.22,2.32,2.32,0,0,1-1.88.81,2.36,2.36,0,0,1-1.91-.79,3.38,3.38,0,0,1-.67-2.25,3.34,3.34,0,0,1,.67-2.23,2.37,2.37,0,0,1,1.91-.79,2.32,2.32,0,0,1,1.89.81,3.33,3.33,0,0,1,.67,2.22" transform="translate(0 0)"/></g><polygon class="cls-3" points="135.97 62.82 135.97 68.71 136.62 68.71 136.62 66.19 138.93 66.19 138.93 65.58 136.62 65.58 136.62 63.43 139.08 63.43 139.08 62.82 135.97 62.82"/><polygon class="cls-3" points="141.31 62.82 141.31 63.43 143.08 63.43 143.08 68.71 143.73 68.71 143.73 63.43 145.5 63.43 145.5 62.82 141.31 62.82"/><polygon class="cls-3" points="149.93 62.82 149.93 65.33 146.98 65.33 146.98 62.82 146.33 62.82 146.33 68.71 146.98 68.71 146.98 65.94 149.93 65.94 149.93 68.71 150.57 68.71 150.57 62.82 149.93 62.82"/><polygon class="cls-3" points="152.09 62.82 152.09 68.71 155.21 68.71 155.21 68.1 152.74 68.1 152.74 65.93 155.06 65.93 155.06 65.33 152.74 65.33 152.74 63.43 155.21 63.43 155.21 62.82 152.09 62.82"/><g class="cls-2"><path class="cls-3" d="M159.1,65.67H160a1.49,1.49,0,0,0,1-.28,1.1,1.1,0,0,0,.33-.87,1,1,0,0,0-.33-.84,1.72,1.72,0,0,0-1.05-.26h-.85Zm0,.59v2.45h-.65V62.82H160a2.32,2.32,0,0,1,1.52.42,1.52,1.52,0,0,1,.49,1.25,1.55,1.55,0,0,1-1.13,1.57l1.52,2.65h-.77l-1.35-2.45Z" transform="translate(0 0)"/><path class="cls-3" d="M167.5,62.82v3.81a2,2,0,0,1-2.16,2.16,2.05,2.05,0,0,1-1.57-.58,2.26,2.26,0,0,1-.55-1.59v-3.8h.65v3.84a1.6,1.6,0,0,0,.38,1.14,1.52,1.52,0,0,0,1.13.39,1.43,1.43,0,0,0,1.09-.4,1.57,1.57,0,0,0,.38-1.13V62.82Z" transform="translate(0 0)"/><path class="cls-3" d="M172.12,67.14a1.5,1.5,0,0,1-.53,1.22,2.33,2.33,0,0,1-1.46.43,3.49,3.49,0,0,1-1.53-.27v-.66a4.12,4.12,0,0,0,.75.24,3.72,3.72,0,0,0,.81.09,1.54,1.54,0,0,0,1-.26.86.86,0,0,0,.33-.72,1,1,0,0,0-.11-.5,1.15,1.15,0,0,0-.39-.36,5.44,5.44,0,0,0-.84-.38,2.62,2.62,0,0,1-1.11-.69,1.62,1.62,0,0,1-.33-1.06,1.34,1.34,0,0,1,.48-1.08,1.93,1.93,0,0,1,1.29-.4,3.71,3.71,0,0,1,1.53.32l-.2.6a3.23,3.23,0,0,0-1.35-.31,1.32,1.32,0,0,0-.81.23.81.81,0,0,0-.29.65.91.91,0,0,0,.47.86,4.21,4.21,0,0,0,.78.36,3,3,0,0,1,1.21.71,1.43,1.43,0,0,1,.33,1" transform="translate(0 0)"/><path class="cls-3" d="M176.41,67.14a1.48,1.48,0,0,1-.54,1.22,2.3,2.3,0,0,1-1.45.43,3.44,3.44,0,0,1-1.53-.27v-.66a4.12,4.12,0,0,0,.75.24,3.63,3.63,0,0,0,.8.09,1.59,1.59,0,0,0,1-.26.86.86,0,0,0,.33-.72.93.93,0,0,0-.12-.5,1.15,1.15,0,0,0-.39-.36,5.25,5.25,0,0,0-.83-.38,2.73,2.73,0,0,1-1.12-.69,1.62,1.62,0,0,1-.33-1.06,1.34,1.34,0,0,1,.48-1.08,2,2,0,0,1,1.29-.4,3.64,3.64,0,0,1,1.53.32l-.2.6a3.23,3.23,0,0,0-1.35-.31,1.27,1.27,0,0,0-.8.23.78.78,0,0,0-.29.65,1,1,0,0,0,.1.5,1.16,1.16,0,0,0,.37.36,4.06,4.06,0,0,0,.77.36,3,3,0,0,1,1.21.71,1.39,1.39,0,0,1,.34,1" transform="translate(0 0)"/></g><rect class="cls-3" x="177.53" y="62.82" width="0.65" height="5.89"/><g class="cls-2"><path class="cls-3" d="M182.32,66.22l-.65-1.82c-.09-.23-.17-.52-.26-.85-.06.26-.14.54-.24.85l-.66,1.82Zm.9,2.49-.7-1.87h-2.24l-.69,1.87h-.66l2.21-5.91h.55l2.2,5.91Z" transform="translate(0 0)"/><path class="cls-3" d="M189,68.71h-.74l-3.06-4.94h0q.06.87.06,1.59v3.35h-.6V62.82h.74l3.05,4.92h0c0-.07,0-.3,0-.7s0-.67,0-.84V62.82H189Z" transform="translate(0 0)"/></g><polygon class="cls-3" points="192.55 62.82 192.55 68.71 193.2 68.71 193.2 66.19 195.52 66.19 195.52 65.58 193.2 65.58 193.2 63.43 195.67 63.43 195.67 62.82 192.55 62.82"/><polygon class="cls-3" points="196.58 62.82 196.58 68.71 199.7 68.71 199.7 68.1 197.23 68.1 197.23 65.93 199.55 65.93 199.55 65.33 197.23 65.33 197.23 63.43 199.7 63.43 199.7 62.82 196.58 62.82"/><g class="cls-2"><path class="cls-3" d="M204.69,65.73a2.47,2.47,0,0,0-.54-1.73,2.14,2.14,0,0,0-1.64-.58h-.94v4.7h.79a2.33,2.33,0,0,0,1.75-.6,2.47,2.47,0,0,0,.58-1.79m.69,0a3.08,3.08,0,0,1-.75,2.23,2.89,2.89,0,0,1-2.16.77h-1.55V62.82h1.71a2.66,2.66,0,0,1,2,.77,2.94,2.94,0,0,1,.72,2.12" transform="translate(0 0)"/></g><polygon class="cls-3" points="206.62 62.82 206.62 68.71 209.73 68.71 209.73 68.1 207.26 68.1 207.26 65.93 209.58 65.93 209.58 65.33 207.26 65.33 207.26 63.43 209.73 63.43 209.73 62.82 206.62 62.82"/><g class="cls-2"><path class="cls-3" d="M211.61,65.67h.89a1.5,1.5,0,0,0,1-.28,1.13,1.13,0,0,0,.32-.87,1,1,0,0,0-.33-.84,1.72,1.72,0,0,0-1.05-.26h-.84Zm0,.59v2.45H211V62.82h1.53a2.32,2.32,0,0,1,1.52.42,1.72,1.72,0,0,1-.63,2.82l1.51,2.65h-.76l-1.36-2.45Z" transform="translate(0 0)"/><path class="cls-3" d="M218.4,66.22l-.65-1.82c-.09-.23-.17-.52-.26-.85-.06.26-.14.54-.24.85l-.66,1.82Zm.9,2.49-.7-1.87h-2.24l-.69,1.87H215l2.21-5.91h.55l2.2,5.91Z" transform="translate(0 0)"/></g><polygon class="cls-3" points="219.48 62.82 219.48 63.43 221.25 63.43 221.25 68.71 221.9 68.71 221.9 63.43 223.67 63.43 223.67 62.82 219.48 62.82"/><rect class="cls-3" x="224.49" y="62.82" width="0.65" height="5.89"/><g class="cls-2"><path class="cls-3" d="M227.06,65.76a2.89,2.89,0,0,0,.48,1.81,1.71,1.71,0,0,0,1.41.62,1.62,1.62,0,0,0,1.4-.62,2.89,2.89,0,0,0,.48-1.81,3,3,0,0,0-.47-1.8,1.68,1.68,0,0,0-1.4-.62,1.72,1.72,0,0,0-1.42.62,2.88,2.88,0,0,0-.48,1.8m4.46,0a3.36,3.36,0,0,1-.68,2.22,2.34,2.34,0,0,1-1.89.81A2.37,2.37,0,0,1,227,68a3.43,3.43,0,0,1-.67-2.25,3.34,3.34,0,0,1,.68-2.23,2.34,2.34,0,0,1,1.91-.79,2.32,2.32,0,0,1,1.88.81,3.33,3.33,0,0,1,.68,2.22" transform="translate(0 0)"/><path class="cls-3" d="M237.12,68.71h-.75l-3.05-4.94h0q.06.87.06,1.59v3.35h-.6V62.82h.73l3.05,4.92h0c0-.07,0-.3,0-.7s0-.67,0-.84V62.82h.61Z" transform="translate(0 0)"/><path class="cls-3" d="M71.32,52.25h1.11a4.09,4.09,0,0,0,2.38-.53,2,2,0,0,0,.73-1.7,1.84,1.84,0,0,0-.69-1.57,3.62,3.62,0,0,0-2.15-.51H71.32ZM76.82,50a3,3,0,0,1-1.1,2.48,5,5,0,0,1-3.15.87H71.32v4.18H70.09V46.87h2.75q4,0,4,3.09" transform="translate(0 0)"/><path class="cls-3" d="M79.64,53.5a3.78,3.78,0,0,0,.61,2.33,2.41,2.41,0,0,0,3.59,0,3.76,3.76,0,0,0,.62-2.33,3.67,3.67,0,0,0-.62-2.3,2.47,2.47,0,0,0-3.6,0,3.78,3.78,0,0,0-.6,2.32m6.07,0a4.41,4.41,0,0,1-1,3A3.47,3.47,0,0,1,82,57.64a3.53,3.53,0,0,1-1.9-.51,3.3,3.3,0,0,1-1.28-1.43,5.05,5.05,0,0,1-.45-2.2,4.36,4.36,0,0,1,1-3,3.43,3.43,0,0,1,2.71-1.09,3.36,3.36,0,0,1,2.65,1.11,4.39,4.39,0,0,1,1,3" transform="translate(0 0)"/><path class="cls-3" d="M91,57.64a3.39,3.39,0,0,1-2.67-1.07,4.33,4.33,0,0,1-1-3,4.54,4.54,0,0,1,1-3.09,3.49,3.49,0,0,1,2.74-1.09,5,5,0,0,1,1.15.13,3.8,3.8,0,0,1,.9.29l-.37,1a5.53,5.53,0,0,0-.87-.26,4,4,0,0,0-.84-.11c-1.61,0-2.42,1-2.42,3.09a3.69,3.69,0,0,0,.59,2.26,2.06,2.06,0,0,0,1.75.78,5.31,5.31,0,0,0,2-.43v1.07a4.35,4.35,0,0,1-2,.42" transform="translate(0 0)"/><path class="cls-3" d="M98,57.64a3.39,3.39,0,0,1-2.68-1.07,4.38,4.38,0,0,1-.95-3,4.54,4.54,0,0,1,1-3.09,3.51,3.51,0,0,1,2.75-1.09,4.92,4.92,0,0,1,1.14.13,3.75,3.75,0,0,1,.91.29l-.38,1a5,5,0,0,0-.87-.26,3.87,3.87,0,0,0-.83-.11q-2.43,0-2.43,3.09a3.75,3.75,0,0,0,.59,2.26,2.08,2.08,0,0,0,1.76.78,5.3,5.3,0,0,0,2-.43v1.07a4.28,4.28,0,0,1-2,.42" transform="translate(0 0)"/></g><polygon class="cls-3" points="103.03 49.53 103.03 54.58 102.98 55.9 102.96 56.31 107.27 49.53 108.77 49.53 108.77 57.49 107.65 57.49 107.65 52.62 107.67 51.66 107.7 50.72 103.4 57.49 101.9 57.49 101.9 49.53 103.03 49.53"/><g class="cls-2"><path class="cls-3" d="M114.71,48.47a3,3,0,0,1-2-.52,2.31,2.31,0,0,1-.69-1.71h1.14a1.56,1.56,0,0,0,.39,1.06,1.74,1.74,0,0,0,1.16.29,1.64,1.64,0,0,0,1.1-.31,1.57,1.57,0,0,0,.44-1h1.14a2.29,2.29,0,0,1-.73,1.69,3,3,0,0,1-2,.54m-2.28,1.06v5l-.05,1.32,0,.41,4.31-6.78h1.5v8h-1.12V52.62l0-1,0-.94-4.3,6.77h-1.5v-8Z" transform="translate(0 0)"/><path class="cls-3" d="M123.88,57.64a3.39,3.39,0,0,1-2.67-1.07,4.33,4.33,0,0,1-.95-3,4.54,4.54,0,0,1,1-3.09A3.49,3.49,0,0,1,124,49.38a5,5,0,0,1,1.15.13,3.8,3.8,0,0,1,.9.29l-.37,1a5.53,5.53,0,0,0-.87-.26,4,4,0,0,0-.84-.11c-1.61,0-2.42,1-2.42,3.09a3.69,3.69,0,0,0,.59,2.26,2.06,2.06,0,0,0,1.75.78,5.31,5.31,0,0,0,2.05-.43v1.07a4.35,4.35,0,0,1-2,.42" transform="translate(0 0)"/></g><polygon class="cls-3" points="132.4 49.53 133.72 49.53 130.28 53.37 134 57.49 132.59 57.49 128.96 53.46 128.96 57.49 127.75 57.49 127.75 49.53 128.96 49.53 128.96 53.4 132.4 49.53"/><g class="cls-2"><path class="cls-3" d="M136,53.5a3.78,3.78,0,0,0,.61,2.33,2.11,2.11,0,0,0,1.79.8,2.14,2.14,0,0,0,1.8-.8,3.76,3.76,0,0,0,.61-2.33,3.67,3.67,0,0,0-.61-2.3,2.47,2.47,0,0,0-3.6,0,3.78,3.78,0,0,0-.6,2.32m6.06,0a4.36,4.36,0,0,1-1,3,3.45,3.45,0,0,1-2.71,1.1,3.52,3.52,0,0,1-1.89-.51,3.24,3.24,0,0,1-1.28-1.43,5.05,5.05,0,0,1-.45-2.2,4.36,4.36,0,0,1,1-3,3.43,3.43,0,0,1,2.7-1.09A3.38,3.38,0,0,1,141,50.49a4.43,4.43,0,0,1,1,3" transform="translate(0 0)"/><path class="cls-3" d="M147.51,48.47a3,3,0,0,1-2-.52,2.31,2.31,0,0,1-.69-1.71H146a1.56,1.56,0,0,0,.39,1.06,1.73,1.73,0,0,0,1.15.29,1.65,1.65,0,0,0,1.11-.31,1.57,1.57,0,0,0,.44-1h1.14a2.33,2.33,0,0,1-.73,1.69,3.05,3.05,0,0,1-2,.54m-2.27,1.06v5l-.05,1.32,0,.41,4.31-6.78H151v8h-1.13V52.62l0-1,0-.94-4.3,6.77h-1.5v-8Z" transform="translate(0 0)"/><path class="cls-3" d="M162.63,55h.18a3.11,3.11,0,0,0,2.27-.79,3,3,0,0,0,.81-2.22,2.87,2.87,0,0,0-.75-2.1,2.8,2.8,0,0,0-2.09-.77h-.42Zm-1.25-5.88H161a2.81,2.81,0,0,0-2.08.77,2.87,2.87,0,0,0-.76,2.1,2.94,2.94,0,0,0,.81,2.22,3.07,3.07,0,0,0,2.27.79h.18Zm0-2.36h1.25V48h.5a4.48,4.48,0,0,1,2.16.5,3.33,3.33,0,0,1,1.39,1.39,4.32,4.32,0,0,1,.49,2.06,4.17,4.17,0,0,1-.55,2.15,3.53,3.53,0,0,1-1.48,1.41,4.91,4.91,0,0,1-2.22.47h-.29v1.64h-1.25V56h-.33a4.84,4.84,0,0,1-2.22-.48,3.53,3.53,0,0,1-1.47-1.42,4.3,4.3,0,0,1-.53-2.12,4.23,4.23,0,0,1,.5-2,3.43,3.43,0,0,1,1.4-1.4,4.37,4.37,0,0,1,2.16-.51h.49Z" transform="translate(0 0)"/><path class="cls-3" d="M172.22,50.39a2,2,0,0,0-1.53.63,2.87,2.87,0,0,0-.67,1.73h4.16a2.65,2.65,0,0,0-.51-1.75,1.76,1.76,0,0,0-1.45-.61m.33,7.25a3.65,3.65,0,0,1-2.79-1.08,4.17,4.17,0,0,1-1-3,4.6,4.6,0,0,1,.95-3,3.14,3.14,0,0,1,2.55-1.14,3,3,0,0,1,2.36,1,3.71,3.71,0,0,1,.88,2.59v.77H170a3.2,3.2,0,0,0,.71,2.13,2.46,2.46,0,0,0,1.89.72,6.34,6.34,0,0,0,2.54-.54v1.08a6.49,6.49,0,0,1-1.2.4,6.88,6.88,0,0,1-1.38.12" transform="translate(0 0)"/><path class="cls-3" d="M182.12,56.45v-6h-1.79a13.19,13.19,0,0,1-.62,3.26,9.12,9.12,0,0,1-1.31,2.71Zm2.3,3.79h-1.17V57.49h-5.57v2.75h-1.16V56.45h.63a10.31,10.31,0,0,0,1.52-3.1,13.46,13.46,0,0,0,.58-3.82h4v6.92h1.14Z" transform="translate(0 0)"/><path class="cls-3" d="M189,50.39a2,2,0,0,0-1.53.63,2.81,2.81,0,0,0-.67,1.73H191a2.65,2.65,0,0,0-.51-1.75,1.77,1.77,0,0,0-1.45-.61m.33,7.25a3.65,3.65,0,0,1-2.79-1.08,4.17,4.17,0,0,1-1-3,4.55,4.55,0,0,1,1-3A3.13,3.13,0,0,1,189,49.38a3,3,0,0,1,2.37,1,3.76,3.76,0,0,1,.87,2.59v.77h-5.48a3.15,3.15,0,0,0,.71,2.13,2.45,2.45,0,0,0,1.89.72,6.37,6.37,0,0,0,2.54-.54v1.08a6.58,6.58,0,0,1-1.21.4,6.77,6.77,0,0,1-1.37.12" transform="translate(0 0)"/><path class="cls-3" d="M197.83,50.41a2.16,2.16,0,0,0-1.77.67,3.51,3.51,0,0,0-.55,2.15v.27a4,4,0,0,0,.55,2.4,2.16,2.16,0,0,0,1.8.73,1.87,1.87,0,0,0,1.62-.84,4,4,0,0,0,.58-2.3,3.82,3.82,0,0,0-.58-2.29,1.92,1.92,0,0,0-1.65-.79m.17,7.23a3.5,3.5,0,0,1-1.42-.29,2.74,2.74,0,0,1-1.07-.88h-.09a10.22,10.22,0,0,1,.09,1.32v3.28H194.3V49.53h1l.17,1.09h.06a2.84,2.84,0,0,1,1.08-.95,3.32,3.32,0,0,1,1.41-.29,3,3,0,0,1,2.45,1.08,4.82,4.82,0,0,1,.86,3,4.7,4.7,0,0,1-.88,3A3,3,0,0,1,198,57.64" transform="translate(0 0)"/><path class="cls-3" d="M205.56,56.64a2.42,2.42,0,0,0,1.77-.62,2.28,2.28,0,0,0,.64-1.73v-.72l-1.2.06a4.44,4.44,0,0,0-2.08.44,1.36,1.36,0,0,0-.63,1.23,1.26,1.26,0,0,0,.39,1,1.64,1.64,0,0,0,1.11.34m2.72.85L208,56.36h0a3.43,3.43,0,0,1-1.19,1,3.59,3.59,0,0,1-1.48.27,2.7,2.7,0,0,1-1.86-.61,2.27,2.27,0,0,1-.67-1.74q0-2.41,3.86-2.53l1.35,0v-.5a2,2,0,0,0-.4-1.38,1.66,1.66,0,0,0-1.29-.45,5.29,5.29,0,0,0-2.25.61l-.37-.92a5.78,5.78,0,0,1,1.28-.5,5.68,5.68,0,0,1,1.41-.18,3,3,0,0,1,2.11.63,2.64,2.64,0,0,1,.69,2v5.43Z" transform="translate(0 0)"/></g><polygon class="cls-3" points="219.4 60.24 218.19 60.24 218.19 57.49 211.63 57.49 211.63 49.53 212.84 49.53 212.84 56.45 217.07 56.45 217.07 49.53 218.27 49.53 218.27 56.45 219.4 56.45 219.4 60.24"/><polygon class="cls-3" points="222.05 49.53 222.05 54.58 222 55.9 221.98 56.31 226.29 49.53 227.79 49.53 227.79 57.49 226.66 57.49 226.66 52.62 226.69 51.66 226.72 50.72 222.42 57.49 220.92 57.49 220.92 49.53 222.05 49.53"/><polygon class="cls-3" points="235.69 49.53 231.38 56.31 231.4 55.9 231.45 54.58 231.45 49.53 230.32 49.53 230.32 57.49 231.82 57.49 236.12 50.72 236.09 51.66 236.06 52.62 236.06 57.49 237.19 57.49 237.19 49.53 235.69 49.53"/></g></g></svg>