<?xml version="1.0" encoding="utf-8"?>
<!-- Generator: Adobe Illustrator 16.0.0, SVG Export Plug-In . SVG Version: 6.00 Build 0)  -->
<!DOCTYPE svg PUBLIC "-//W3C//DTD SVG 1.1//EN" "http://www.w3.org/Graphics/SVG/1.1/DTD/svg11.dtd">
<svg version="1.1" id="Layer_1" xmlns="http://www.w3.org/2000/svg" xmlns:xlink="http://www.w3.org/1999/xlink" x="0px" y="0px"
	 width="441px" height="537px" viewBox="0 0 441 537" enable-background="new 0 0 441 537" xml:space="preserve">
<g>
	<defs>
		<rect id="SVGID_1_" x="63" y="78.277" width="288.136" height="422.183"/>
	</defs>
	<clipPath id="SVGID_2_">
		<use xlink:href="#SVGID_1_"  overflow="visible"/>
	</clipPath>
	<path clip-path="url(#SVGID_2_)" fill="#FFFFFF" d="M136.066,218.898c48.166,0,72.657-36.533,72.657-73.066
		c0-30.41-16.123-62.044-56.738-67.555v35.921c15.511,3.878,22.655,16.123,22.655,31.634c0,21.839-18.165,35.717-38.778,35.717
		c-23.675,0-39.187-14.083-39.187-35.717c0-15.307,5.715-26.124,20.41-31.226V78.685C78.919,84.196,63,116.443,63,145.832
		C63,182.365,86.879,218.898,136.066,218.898 M97.084,301.76h110.211v-36.123H97.084v-34.901H64.429v106.13h32.655V301.76z
		 M125.861,425.849L64.02,482.586v13.267h143.275v-37.35h-65.923l31.839-30.41v-4.285l-31.839-30.41h65.923v-37.349H64.02v13.266
		L125.861,425.849z"/>
	<path clip-path="url(#SVGID_2_)" fill="#FFFFFF" d="M335.172,477.008c-2.652,0-3.952-2.288-3.952-4.576s1.248-4.368,3.952-4.368
		h6.604v8.944H335.172z M320.3,494.844v1.353h10.088l6.24-11.44h4.992v11.44h9.516v-36.4H335.12
		c-8.788,0-13.104,6.448-13.104,12.844c0.052,4.16,1.82,8.164,5.409,10.608L320.3,494.844z M297.629,468.271h7.903v27.925h9.465
		v-36.4h-25.688l-2.548,24.856c-0.416,3.899-1.092,4.888-5.252,4.523l-0.156,6.813c10.452,1.456,13.937-0.469,14.872-11.024
		L297.629,468.271z M241.469,488.136v12.324h7.228v-4.264h21.736v4.264h7.696v-12.324h-3.641v-28.34h-25.115l-2.756,23.712
		c-0.416,3.38-0.988,4.576-3.797,4.628H241.469z M257.641,467.96h7.384v20.384h-10.712c1.145-0.936,1.561-3.067,1.664-4.523
		L257.641,467.96z"/>
</g>
</svg>
