<?xml version="1.0" encoding="utf-8"?>
<!-- Generator: Adobe Illustrator 16.0.0, SVG Export Plug-In . SVG Version: 6.00 Build 0)  -->
<!DOCTYPE svg PUBLIC "-//W3C//DTD SVG 1.1//EN" "http://www.w3.org/Graphics/SVG/1.1/DTD/svg11.dtd">
<svg version="1.1" id="Layer_1" xmlns="http://www.w3.org/2000/svg" xmlns:xlink="http://www.w3.org/1999/xlink" x="0px" y="0px"
	 width="1183px" height="350px" viewBox="0 0 1183 350" enable-background="new 0 0 1183 350" xml:space="preserve">
<g>
	<defs>
		<rect id="SVGID_1_" x="48.146" y="97.34" width="1090.854" height="163.12"/>
	</defs>
	<clipPath id="SVGID_2_">
		<use xlink:href="#SVGID_1_"  overflow="visible"/>
	</clipPath>
	<path clip-path="url(#SVGID_2_)" fill="#F37053" d="M1029.364,171.934c0-26.231,17.829-38.937,36.478-38.937
		c17.827,0,35.656,13.32,35.656,38.937c0,25.614-18.238,38.935-36.066,38.935C1046.988,210.868,1029.364,197.548,1029.364,171.934
		 M1138.999,171.934c0-49.593-36.477-74.593-73.157-74.593c-37.297,0-73.979,25-73.979,74.593c0,49.796,35.452,74.387,73.363,74.387
		C1108.67,246.32,1138.999,215.786,1138.999,171.934 M991.636,132.997v-32.788h-89.348v143.447h37.296V132.997H991.636z
		 M780.838,171.934c0-26.231,17.828-38.937,36.477-38.937c17.829,0,35.657,13.32,35.657,38.937
		c0,25.614-18.238,38.935-36.066,38.935C798.461,210.868,780.838,197.548,780.838,171.934 M890.473,171.934
		c0-49.593-36.477-74.593-73.158-74.593c-37.296,0-73.978,25-73.978,74.593c0,49.796,35.452,74.387,73.363,74.387
		C860.144,246.32,890.473,215.786,890.473,171.934 M589.746,211.894v48.566h28.485v-16.804h85.658v16.804h30.329v-48.566h-14.346
		V100.209h-98.978l-10.861,93.446c-1.64,13.32-3.894,18.033-14.96,18.238H589.746z M653.479,132.382h29.099v80.33h-42.215
		c4.509-3.688,6.148-12.09,6.558-17.828L653.479,132.382z M562.903,243.656v-5.533c-13.729-21.312-27.459-42.829-40.984-64.141
		c7.992-8.607,12.091-21.518,16.395-38.731c2.459-9.426,10.451-11.065,18.647-9.426v-25.206
		c-24.181-5.533-46.518-2.459-51.641,24.591c-2.05,9.426-5.123,23.156-14.14,28.279c-3.484,2.255-8.197,2.459-13.936,2.459v-55.739
		h-37.091v55.739c-5.738,0-10.246-0.204-13.729-2.459c-9.223-5.123-12.297-18.854-14.141-28.279
		c-5.328-27.05-27.665-30.124-51.846-24.591v25.206c8.402-1.64,16.394,0,18.647,9.426c4.305,17.214,8.402,30.124,16.6,38.731
		c-13.73,21.312-27.46,42.829-40.985,64.141v5.533h42.215c10.451-18.443,20.902-36.886,31.354-55.125
		c4.304,0.41,6.763,0.82,11.886,0.82v54.305h37.091v-54.305c5.328,0,7.582-0.41,12.091-0.82
		c10.246,18.239,20.697,36.682,31.148,55.125H562.903z M266.123,159.842l14.96,34.633h-29.714L266.123,159.842z M292.969,225.828
		l8.401,17.828h38.731v-5.123L274.936,98.775h-17.214l-65.78,139.758v5.123h39.14l8.197-17.828H292.969z M134.83,243.656h42.419
		v-5.533c-13.935-21.312-27.255-42.829-40.985-64.141c7.992-8.813,12.911-20.902,17.624-38.116
		c2.254-8.813,8.402-10.861,17.418-10.246v-25.206c-33.607-6.967-47.542,7.172-51.845,24.591c-4.099,17.214-6.353,25.82-12.911,29.1
		c-5.123,2.664-14.959,2.254-20.902,2.254v-56.149H48.146v143.447h37.501v-54.715c5.123,0,13.525,0,17.829-0.615L134.83,243.656z"/>
</g>
</svg>
