<svg xmlns="http://www.w3.org/2000/svg" xmlns:xlink="http://www.w3.org/1999/xlink" viewBox="0 0 23.69 34.59"><defs><style>.cls-1,.cls-2,.cls-3{fill:none;}.cls-2{stroke:#e94e4d;stroke-width:2px;}.cls-3{stroke:#706f6f;}.cls-4{clip-path:url(#clip-path);}.cls-5{fill:#706f6f;}</style><clipPath id="clip-path"><rect class="cls-1" width="23.69" height="34.59"/></clipPath></defs><title>Ресурс 1</title><g id="Слой_2" data-name="Слой 2"><g id="Слой_1-2" data-name="Слой 1"><polyline class="cls-2" points="9.13 28.65 13.66 33.17 18.18 28.65"/><line class="cls-2" x1="13.66" y1="32.29" x2="13.66" y2="23.92"/><polyline class="cls-3" points="23.19 25.31 23.19 0.5 0.5 0.5 0.5 25.31 7.19 25.31"/><line class="cls-3" x1="4.44" y1="19.88" x2="18.89" y2="19.88"/><line class="cls-3" x1="4.44" y1="14.92" x2="18.89" y2="14.92"/><g class="cls-4"><path class="cls-5" d="M7.87,7.6A.85.85,0,0,0,8.05,7a.62.62,0,0,0-.23-.54A1.27,1.27,0,0,0,7.1,6.3H6.53V7.8H7.2a.89.89,0,0,0,.67-.2M8.6,5.85a1.51,1.51,0,0,1,.47,1.22,1.46,1.46,0,0,1-.48,1.21,2.37,2.37,0,0,1-1.47.38H6.53V9.9h-1V5.45H7.11a2.25,2.25,0,0,1,1.49.4"/><path class="cls-5" d="M12.51,8.68a1.3,1.3,0,0,0,.37-1,1.31,1.31,0,0,0-.37-1,1.52,1.52,0,0,0-1.12-.35h-.55V9h.63a1.45,1.45,0,0,0,1-.34M13.24,6a2.07,2.07,0,0,1,.64,1.62,2.19,2.19,0,0,1-.62,1.64,2.6,2.6,0,0,1-1.89.61H9.84V5.45h1.58A2.63,2.63,0,0,1,13.24,6"/></g><polygon class="cls-5" points="17.79 5.45 17.79 6.32 15.73 6.32 15.73 7.28 17.69 7.28 17.69 8.15 15.73 8.15 15.73 9.9 14.74 9.9 14.74 5.45 17.79 5.45"/></g></g></svg>