<svg xmlns="http://www.w3.org/2000/svg" xmlns:xlink="http://www.w3.org/1999/xlink" viewBox="0 0 296.06 211.98"><defs><style>.cls-1{fill:url(#Безымянный_градиент);}.cls-2{fill:none;}.cls-3{isolation:isolate;}.cls-4{clip-path:url(#clip-path);}.cls-5{mask:url(#mask);}.cls-6{clip-path:url(#clip-path-3);}.cls-7{mix-blend-mode:soft-light;}.cls-8{clip-path:url(#clip-path-4);}.cls-9{fill:#fff;}.cls-10{clip-path:url(#clip-path-5);}.cls-11{filter:url(#luminosity-noclip);}</style><linearGradient id="Безымянный_градиент" x1="-514.06" y1="684.09" x2="-513.06" y2="684.09" gradientTransform="translate(152214.05 -202403.96) scale(296.05)" gradientUnits="userSpaceOnUse"><stop offset="0" stop-color="#fff"/><stop offset="1"/></linearGradient><clipPath id="clip-path" transform="translate(-25 -19)"><rect class="cls-2" x="25" y="19" width="296.05" height="211.98"/></clipPath><filter id="luminosity-noclip" x="0" y="0" width="346.05" height="231.98" filterUnits="userSpaceOnUse" color-interpolation-filters="sRGB"><feFlood flood-color="#fff" result="bg"/><feBlend in="SourceGraphic" in2="bg"/></filter><mask id="mask" x="-25" y="-19" width="346.05" height="231.98" maskUnits="userSpaceOnUse"><g class="cls-11"><g transform="translate(-25 -19)"><rect class="cls-1" x="25" y="19" width="296.05" height="211.98"/></g></g></mask><clipPath id="clip-path-3" transform="translate(-25 -19)"><rect class="cls-2" width="346.05" height="231.98"/></clipPath><clipPath id="clip-path-4" transform="translate(-25 -19)"><rect class="cls-2" x="8" y="117.99" width="330.05" height="113.99"/></clipPath><clipPath id="clip-path-5" transform="translate(-25 -19)"><rect class="cls-2" x="8" y="6" width="330.05" height="113.99"/></clipPath></defs><title>Ресурс 1</title><g class="cls-3"><g id="Слой_2" data-name="Слой 2"><g id="Слой_1-2" data-name="Слой 1"><g class="cls-4"><g class="cls-4"><g class="cls-5"><g class="cls-6"><g class="cls-7"><g class="cls-8"><path class="cls-9" d="M320,194.14a.9.9,0,1,1,1.09-.88,1,1,0,0,1-1.09.88" transform="translate(-25 -19)"/><path class="cls-9" d="M320,181.86a.9.9,0,1,1,1.09-.88,1,1,0,0,1-1.09.88" transform="translate(-25 -19)"/><path class="cls-9" d="M320,169.58a.9.9,0,1,1,1.09-.88,1,1,0,0,1-1.09.88" transform="translate(-25 -19)"/><path class="cls-9" d="M320,157.3a.9.9,0,1,1,1.09-.88,1,1,0,0,1-1.09.88" transform="translate(-25 -19)"/><path class="cls-9" d="M320,145a.9.9,0,1,1,1.09-.88A1,1,0,0,1,320,145" transform="translate(-25 -19)"/><path class="cls-9" d="M320,206.42a.9.9,0,1,1,0-1.76.9.9,0,1,1,0,1.76" transform="translate(-25 -19)"/><path class="cls-9" d="M320,218.7a.9.9,0,1,1,0-1.76.9.9,0,1,1,0,1.76" transform="translate(-25 -19)"/><path class="cls-9" d="M320,231a.9.9,0,1,1,0-1.76.9.9,0,1,1,0,1.76" transform="translate(-25 -19)"/><path class="cls-9" d="M320,132.74a.9.9,0,1,1,1.09-.88,1,1,0,0,1-1.09.88" transform="translate(-25 -19)"/><path class="cls-9" d="M165.29,194.14a.9.9,0,1,1,1.1-.88,1,1,0,0,1-1.1.88" transform="translate(-25 -19)"/><path class="cls-9" d="M165.29,181.86a.9.9,0,1,1,1.1-.88,1,1,0,0,1-1.1.88" transform="translate(-25 -19)"/><path class="cls-9" d="M165.29,169.58a.9.9,0,1,1,1.1-.88,1,1,0,0,1-1.1.88" transform="translate(-25 -19)"/><path class="cls-9" d="M165.29,157.3a.9.9,0,1,1,0-1.76.9.9,0,1,1,0,1.76" transform="translate(-25 -19)"/><path class="cls-9" d="M165.29,145a.9.9,0,1,1,0-1.76.9.9,0,1,1,0,1.76" transform="translate(-25 -19)"/><path class="cls-9" d="M165.29,206.42a.9.9,0,1,1,1.1-.88,1,1,0,0,1-1.1.88" transform="translate(-25 -19)"/><path class="cls-9" d="M165.29,218.7a.9.9,0,1,1,1.1-.88,1,1,0,0,1-1.1.88" transform="translate(-25 -19)"/><path class="cls-9" d="M165.29,231a.9.9,0,1,1,1.1-.88,1,1,0,0,1-1.1.88" transform="translate(-25 -19)"/><path class="cls-9" d="M165.29,132.74a.9.9,0,1,1,1.1-.88,1,1,0,0,1-1.1.88" transform="translate(-25 -19)"/><path class="cls-9" d="M289,194.14a.9.9,0,1,1,1.09-.88,1,1,0,0,1-1.09.88" transform="translate(-25 -19)"/><path class="cls-9" d="M289,181.86a.9.9,0,1,1,1.09-.88,1,1,0,0,1-1.09.88" transform="translate(-25 -19)"/><path class="cls-9" d="M289,169.58a.9.9,0,1,1,1.09-.88,1,1,0,0,1-1.09.88" transform="translate(-25 -19)"/><path class="cls-9" d="M289,157.3a.9.9,0,1,1,1.09-.88,1,1,0,0,1-1.09.88" transform="translate(-25 -19)"/><path class="cls-9" d="M289,145a.9.9,0,1,1,1.09-.88A1,1,0,0,1,289,145" transform="translate(-25 -19)"/><path class="cls-9" d="M289,206.42a.9.9,0,1,1,0-1.76.9.9,0,1,1,0,1.76" transform="translate(-25 -19)"/><path class="cls-9" d="M289,218.7a.9.9,0,1,1,0-1.76.9.9,0,1,1,0,1.76" transform="translate(-25 -19)"/><path class="cls-9" d="M289,231a.9.9,0,1,1,0-1.76.9.9,0,1,1,0,1.76" transform="translate(-25 -19)"/><path class="cls-9" d="M289,132.74a.9.9,0,1,1,1.09-.88,1,1,0,0,1-1.09.88" transform="translate(-25 -19)"/><path class="cls-9" d="M134.36,194.14a.9.9,0,1,1,1.1-.88,1,1,0,0,1-1.1.88" transform="translate(-25 -19)"/><path class="cls-9" d="M134.36,181.86a.9.9,0,1,1,1.1-.88,1,1,0,0,1-1.1.88" transform="translate(-25 -19)"/><path class="cls-9" d="M134.36,169.58a.9.9,0,1,1,1.1-.88,1,1,0,0,1-1.1.88" transform="translate(-25 -19)"/><path class="cls-9" d="M134.36,157.3a.9.9,0,1,1,1.1-.88,1,1,0,0,1-1.1.88" transform="translate(-25 -19)"/><path class="cls-9" d="M134.36,145a.9.9,0,1,1,1.1-.88,1,1,0,0,1-1.1.88" transform="translate(-25 -19)"/><path class="cls-9" d="M134.36,206.42a.9.9,0,1,1,0-1.76.9.9,0,1,1,0,1.76" transform="translate(-25 -19)"/><path class="cls-9" d="M134.36,218.7a.9.9,0,1,1,0-1.76.9.9,0,1,1,0,1.76" transform="translate(-25 -19)"/><path class="cls-9" d="M134.36,231a.9.9,0,1,1,0-1.76.9.9,0,1,1,0,1.76" transform="translate(-25 -19)"/><path class="cls-9" d="M134.36,132.74a.9.9,0,1,1,1.1-.88,1,1,0,0,1-1.1.88" transform="translate(-25 -19)"/><path class="cls-9" d="M258.09,194.14a.9.9,0,1,1,1.1-.88,1,1,0,0,1-1.1.88" transform="translate(-25 -19)"/><path class="cls-9" d="M258.09,181.86a.9.9,0,1,1,1.1-.88,1,1,0,0,1-1.1.88" transform="translate(-25 -19)"/><path class="cls-9" d="M258.09,169.58a.9.9,0,1,1,1.1-.88,1,1,0,0,1-1.1.88" transform="translate(-25 -19)"/><path class="cls-9" d="M258.09,157.3a.9.9,0,1,1,0-1.76.9.9,0,1,1,0,1.76" transform="translate(-25 -19)"/><path class="cls-9" d="M258.09,145a.9.9,0,1,1,0-1.76.9.9,0,1,1,0,1.76" transform="translate(-25 -19)"/><path class="cls-9" d="M258.09,206.42a.9.9,0,1,1,1.1-.88,1,1,0,0,1-1.1.88" transform="translate(-25 -19)"/><path class="cls-9" d="M258.09,218.7a.9.9,0,1,1,1.1-.88,1,1,0,0,1-1.1.88" transform="translate(-25 -19)"/><path class="cls-9" d="M258.09,231a.9.9,0,1,1,1.1-.88,1,1,0,0,1-1.1.88" transform="translate(-25 -19)"/><path class="cls-9" d="M258.09,132.74a.9.9,0,1,1,1.1-.88,1,1,0,0,1-1.1.88" transform="translate(-25 -19)"/><path class="cls-9" d="M103.43,194.14a.9.9,0,1,1,1.1-.88,1,1,0,0,1-1.1.88" transform="translate(-25 -19)"/><path class="cls-9" d="M103.43,181.86a.9.9,0,1,1,1.1-.88,1,1,0,0,1-1.1.88" transform="translate(-25 -19)"/><path class="cls-9" d="M103.43,169.58a.9.9,0,1,1,1.1-.88,1,1,0,0,1-1.1.88" transform="translate(-25 -19)"/><path class="cls-9" d="M103.43,157.3a.9.9,0,1,1,0-1.76.9.9,0,1,1,0,1.76" transform="translate(-25 -19)"/><path class="cls-9" d="M103.43,145a.9.9,0,1,1,0-1.76.9.9,0,1,1,0,1.76" transform="translate(-25 -19)"/><path class="cls-9" d="M103.43,206.42a.9.9,0,1,1,1.1-.88,1,1,0,0,1-1.1.88" transform="translate(-25 -19)"/><path class="cls-9" d="M103.43,218.7a.9.9,0,1,1,1.1-.88,1,1,0,0,1-1.1.88" transform="translate(-25 -19)"/><path class="cls-9" d="M103.43,231a.9.9,0,1,1,1.1-.88,1,1,0,0,1-1.1.88" transform="translate(-25 -19)"/><path class="cls-9" d="M103.43,132.74a.9.9,0,1,1,1.1-.88,1,1,0,0,1-1.1.88" transform="translate(-25 -19)"/><path class="cls-9" d="M227.16,194.14a.9.9,0,1,1,1.1-.88,1,1,0,0,1-1.1.88" transform="translate(-25 -19)"/><path class="cls-9" d="M227.16,181.86a.9.9,0,1,1,1.1-.88,1,1,0,0,1-1.1.88" transform="translate(-25 -19)"/><path class="cls-9" d="M227.16,169.58a.9.9,0,1,1,1.1-.88,1,1,0,0,1-1.1.88" transform="translate(-25 -19)"/><path class="cls-9" d="M227.16,157.3a.9.9,0,1,1,1.1-.88,1,1,0,0,1-1.1.88" transform="translate(-25 -19)"/><path class="cls-9" d="M227.16,145a.9.9,0,1,1,1.1-.88,1,1,0,0,1-1.1.88" transform="translate(-25 -19)"/><path class="cls-9" d="M227.16,206.42a.9.9,0,1,1,1.1-.88,1,1,0,0,1-1.1.88" transform="translate(-25 -19)"/><path class="cls-9" d="M227.16,218.7a.9.9,0,1,1,1.1-.88,1,1,0,0,1-1.1.88" transform="translate(-25 -19)"/><path class="cls-9" d="M227.16,231a.9.9,0,1,1,1.1-.88,1,1,0,0,1-1.1.88" transform="translate(-25 -19)"/><path class="cls-9" d="M227.16,132.74a.9.9,0,1,1,1.1-.88,1,1,0,0,1-1.1.88" transform="translate(-25 -19)"/><path class="cls-9" d="M72.5,194.14a.9.9,0,1,1,1.09-.88,1,1,0,0,1-1.09.88" transform="translate(-25 -19)"/><path class="cls-9" d="M72.5,181.86a.9.9,0,1,1,1.09-.88,1,1,0,0,1-1.09.88" transform="translate(-25 -19)"/><path class="cls-9" d="M72.5,169.58a.9.9,0,1,1,1.09-.88,1,1,0,0,1-1.09.88" transform="translate(-25 -19)"/><path class="cls-9" d="M72.5,157.3a.9.9,0,1,1,1.09-.88,1,1,0,0,1-1.09.88" transform="translate(-25 -19)"/><path class="cls-9" d="M72.5,145a.9.9,0,1,1,1.09-.88,1,1,0,0,1-1.09.88" transform="translate(-25 -19)"/><path class="cls-9" d="M72.5,206.42a.9.9,0,1,1,0-1.76.9.9,0,1,1,0,1.76" transform="translate(-25 -19)"/><path class="cls-9" d="M72.5,218.7a.9.9,0,1,1,0-1.76.9.9,0,1,1,0,1.76" transform="translate(-25 -19)"/><path class="cls-9" d="M72.5,231a.9.9,0,1,1,0-1.76.9.9,0,1,1,0,1.76" transform="translate(-25 -19)"/><path class="cls-9" d="M72.5,132.74a.9.9,0,1,1,1.09-.88,1,1,0,0,1-1.09.88" transform="translate(-25 -19)"/><path class="cls-9" d="M196.23,194.14a.9.9,0,1,1,1.09-.88,1,1,0,0,1-1.09.88" transform="translate(-25 -19)"/><path class="cls-9" d="M196.23,181.86a.9.9,0,1,1,1.09-.88,1,1,0,0,1-1.09.88" transform="translate(-25 -19)"/><path class="cls-9" d="M196.23,169.58a.9.9,0,1,1,1.09-.88,1,1,0,0,1-1.09.88" transform="translate(-25 -19)"/><path class="cls-9" d="M196.23,157.3a.9.9,0,1,1,1.09-.88,1,1,0,0,1-1.09.88" transform="translate(-25 -19)"/><path class="cls-9" d="M196.23,145a.9.9,0,1,1,1.09-.88,1,1,0,0,1-1.09.88" transform="translate(-25 -19)"/><path class="cls-9" d="M196.23,206.42a.9.9,0,1,1,0-1.76.9.9,0,1,1,0,1.76" transform="translate(-25 -19)"/><path class="cls-9" d="M196.23,218.7a.9.9,0,1,1,0-1.76.9.9,0,1,1,0,1.76" transform="translate(-25 -19)"/><path class="cls-9" d="M196.23,231a.9.9,0,1,1,0-1.76.9.9,0,1,1,0,1.76" transform="translate(-25 -19)"/><path class="cls-9" d="M196.23,132.74a.9.9,0,1,1,1.09-.88,1,1,0,0,1-1.09.88" transform="translate(-25 -19)"/><path class="cls-9" d="M41.56,194.14a.9.9,0,1,1,1.1-.88,1,1,0,0,1-1.1.88" transform="translate(-25 -19)"/><path class="cls-9" d="M41.56,181.86a.9.9,0,1,1,1.1-.88,1,1,0,0,1-1.1.88" transform="translate(-25 -19)"/><path class="cls-9" d="M41.56,169.58a.9.9,0,1,1,1.1-.88,1,1,0,0,1-1.1.88" transform="translate(-25 -19)"/><path class="cls-9" d="M41.56,157.3a.9.9,0,1,1,0-1.76.9.9,0,1,1,0,1.76" transform="translate(-25 -19)"/><path class="cls-9" d="M41.56,145a.9.9,0,1,1,0-1.76.9.9,0,1,1,0,1.76" transform="translate(-25 -19)"/><path class="cls-9" d="M41.56,206.42a.9.9,0,1,1,1.1-.88,1,1,0,0,1-1.1.88" transform="translate(-25 -19)"/><path class="cls-9" d="M41.56,218.7a.9.9,0,1,1,1.1-.88,1,1,0,0,1-1.1.88" transform="translate(-25 -19)"/><path class="cls-9" d="M41.56,231a.9.9,0,1,1,1.1-.88,1,1,0,0,1-1.1.88" transform="translate(-25 -19)"/><path class="cls-9" d="M41.56,132.74a.9.9,0,1,1,1.1-.88,1,1,0,0,1-1.1.88" transform="translate(-25 -19)"/><path class="cls-9" d="M304.49,194.14a.9.9,0,1,1,1.1-.88,1,1,0,0,1-1.1.88" transform="translate(-25 -19)"/><path class="cls-9" d="M304.49,181.86a.9.9,0,1,1,1.1-.88,1,1,0,0,1-1.1.88" transform="translate(-25 -19)"/><path class="cls-9" d="M304.49,169.58a.9.9,0,1,1,1.1-.88,1,1,0,0,1-1.1.88" transform="translate(-25 -19)"/><path class="cls-9" d="M304.49,157.3a.9.9,0,1,1,1.1-.88,1,1,0,0,1-1.1.88" transform="translate(-25 -19)"/><path class="cls-9" d="M304.49,145a.9.9,0,1,1,1.1-.88,1,1,0,0,1-1.1.88" transform="translate(-25 -19)"/><path class="cls-9" d="M304.49,206.42a.9.9,0,1,1,0-1.76.9.9,0,1,1,0,1.76" transform="translate(-25 -19)"/><path class="cls-9" d="M304.49,218.7a.9.9,0,1,1,0-1.76.9.9,0,1,1,0,1.76" transform="translate(-25 -19)"/><path class="cls-9" d="M304.49,231a.9.9,0,1,1,0-1.76.9.9,0,1,1,0,1.76" transform="translate(-25 -19)"/><path class="cls-9" d="M304.49,132.74a.9.9,0,1,1,1.1-.88,1,1,0,0,1-1.1.88" transform="translate(-25 -19)"/><path class="cls-9" d="M149.83,194.14a.9.9,0,1,1,1.09-.88,1,1,0,0,1-1.09.88" transform="translate(-25 -19)"/><path class="cls-9" d="M149.83,181.86a.9.9,0,1,1,1.09-.88,1,1,0,0,1-1.09.88" transform="translate(-25 -19)"/><path class="cls-9" d="M149.83,169.58a.9.9,0,1,1,1.09-.88,1,1,0,0,1-1.09.88" transform="translate(-25 -19)"/><path class="cls-9" d="M149.83,157.3a.9.9,0,1,1,1.09-.88,1,1,0,0,1-1.09.88" transform="translate(-25 -19)"/><path class="cls-9" d="M149.83,145a.9.9,0,1,1,1.09-.88,1,1,0,0,1-1.09.88" transform="translate(-25 -19)"/><path class="cls-9" d="M149.83,206.42a.9.9,0,1,1,0-1.76.9.9,0,1,1,0,1.76" transform="translate(-25 -19)"/><path class="cls-9" d="M149.83,218.7a.9.9,0,1,1,0-1.76.9.9,0,1,1,0,1.76" transform="translate(-25 -19)"/><path class="cls-9" d="M149.83,231a.9.9,0,1,1,0-1.76.9.9,0,1,1,0,1.76" transform="translate(-25 -19)"/><path class="cls-9" d="M149.83,132.74a.9.9,0,1,1,1.09-.88,1,1,0,0,1-1.09.88" transform="translate(-25 -19)"/><path class="cls-9" d="M273.56,194.14a.9.9,0,1,1,1.1-.88,1,1,0,0,1-1.1.88" transform="translate(-25 -19)"/><path class="cls-9" d="M273.56,181.86a.9.9,0,1,1,1.1-.88,1,1,0,0,1-1.1.88" transform="translate(-25 -19)"/><path class="cls-9" d="M273.56,169.58a.9.9,0,1,1,1.1-.88,1,1,0,0,1-1.1.88" transform="translate(-25 -19)"/><path class="cls-9" d="M273.56,157.3a.9.9,0,1,1,0-1.76.9.9,0,1,1,0,1.76" transform="translate(-25 -19)"/><path class="cls-9" d="M273.56,145a.9.9,0,1,1,0-1.76.9.9,0,1,1,0,1.76" transform="translate(-25 -19)"/><path class="cls-9" d="M273.56,206.42a.9.9,0,1,1,1.1-.88,1,1,0,0,1-1.1.88" transform="translate(-25 -19)"/><path class="cls-9" d="M273.56,218.7a.9.9,0,1,1,1.1-.88,1,1,0,0,1-1.1.88" transform="translate(-25 -19)"/><path class="cls-9" d="M273.56,231a.9.9,0,1,1,1.1-.88,1,1,0,0,1-1.1.88" transform="translate(-25 -19)"/><path class="cls-9" d="M273.56,132.74a.9.9,0,1,1,1.1-.88,1,1,0,0,1-1.1.88" transform="translate(-25 -19)"/><path class="cls-9" d="M118.89,194.14a.9.9,0,1,1,1.1-.88,1,1,0,0,1-1.1.88" transform="translate(-25 -19)"/><path class="cls-9" d="M118.89,181.86A.9.9,0,1,1,120,181a1,1,0,0,1-1.1.88" transform="translate(-25 -19)"/><path class="cls-9" d="M118.89,169.58a.9.9,0,1,1,1.1-.88,1,1,0,0,1-1.1.88" transform="translate(-25 -19)"/><path class="cls-9" d="M118.89,157.3a.9.9,0,1,1,0-1.76.9.9,0,1,1,0,1.76" transform="translate(-25 -19)"/><path class="cls-9" d="M118.89,145a.9.9,0,1,1,0-1.76.9.9,0,1,1,0,1.76" transform="translate(-25 -19)"/><path class="cls-9" d="M118.89,206.42a.9.9,0,1,1,1.1-.88,1,1,0,0,1-1.1.88" transform="translate(-25 -19)"/><path class="cls-9" d="M118.89,218.7a.9.9,0,1,1,1.1-.88,1,1,0,0,1-1.1.88" transform="translate(-25 -19)"/><path class="cls-9" d="M118.89,231a.9.9,0,1,1,1.1-.88,1,1,0,0,1-1.1.88" transform="translate(-25 -19)"/><path class="cls-9" d="M118.89,132.74a.9.9,0,1,1,1.1-.88,1,1,0,0,1-1.1.88" transform="translate(-25 -19)"/><path class="cls-9" d="M242.63,194.14a.9.9,0,1,1,1.09-.88,1,1,0,0,1-1.09.88" transform="translate(-25 -19)"/><path class="cls-9" d="M242.63,181.86a.9.9,0,1,1,1.09-.88,1,1,0,0,1-1.09.88" transform="translate(-25 -19)"/><path class="cls-9" d="M242.63,169.58a.9.9,0,1,1,1.09-.88,1,1,0,0,1-1.09.88" transform="translate(-25 -19)"/><path class="cls-9" d="M242.63,157.3a.9.9,0,1,1,1.09-.88,1,1,0,0,1-1.09.88" transform="translate(-25 -19)"/><path class="cls-9" d="M242.63,145a.9.9,0,1,1,1.09-.88,1,1,0,0,1-1.09.88" transform="translate(-25 -19)"/><path class="cls-9" d="M242.63,206.42a.9.9,0,1,1,0-1.76.9.9,0,1,1,0,1.76" transform="translate(-25 -19)"/><path class="cls-9" d="M242.63,218.7a.9.9,0,1,1,0-1.76.9.9,0,1,1,0,1.76" transform="translate(-25 -19)"/><path class="cls-9" d="M242.63,231a.9.9,0,1,1,0-1.76.9.9,0,1,1,0,1.76" transform="translate(-25 -19)"/><path class="cls-9" d="M242.63,132.74a.9.9,0,1,1,1.09-.88,1,1,0,0,1-1.09.88" transform="translate(-25 -19)"/><path class="cls-9" d="M88,194.14a.9.9,0,1,1,1.1-.88,1,1,0,0,1-1.1.88" transform="translate(-25 -19)"/><path class="cls-9" d="M88,181.86a.9.9,0,1,1,1.1-.88,1,1,0,0,1-1.1.88" transform="translate(-25 -19)"/><path class="cls-9" d="M88,169.58a.9.9,0,1,1,1.1-.88,1,1,0,0,1-1.1.88" transform="translate(-25 -19)"/><path class="cls-9" d="M88,157.3a.9.9,0,1,1,0-1.76.9.9,0,1,1,0,1.76" transform="translate(-25 -19)"/><path class="cls-9" d="M88,145a.9.9,0,1,1,0-1.76A.9.9,0,1,1,88,145" transform="translate(-25 -19)"/><path class="cls-9" d="M88,206.42a.9.9,0,1,1,1.1-.88,1,1,0,0,1-1.1.88" transform="translate(-25 -19)"/><path class="cls-9" d="M88,218.7a.9.9,0,1,1,1.1-.88,1,1,0,0,1-1.1.88" transform="translate(-25 -19)"/><path class="cls-9" d="M88,231a.9.9,0,1,1,1.1-.88A1,1,0,0,1,88,231" transform="translate(-25 -19)"/><path class="cls-9" d="M88,132.74a.9.9,0,1,1,1.1-.88,1,1,0,0,1-1.1.88" transform="translate(-25 -19)"/><path class="cls-9" d="M211.69,194.14a.9.9,0,1,1,1.1-.88,1,1,0,0,1-1.1.88" transform="translate(-25 -19)"/><path class="cls-9" d="M211.69,181.86a.9.9,0,1,1,1.1-.88,1,1,0,0,1-1.1.88" transform="translate(-25 -19)"/><path class="cls-9" d="M211.69,169.58a.9.9,0,1,1,1.1-.88,1,1,0,0,1-1.1.88" transform="translate(-25 -19)"/><path class="cls-9" d="M211.69,157.3a.9.9,0,1,1,0-1.76.9.9,0,1,1,0,1.76" transform="translate(-25 -19)"/><path class="cls-9" d="M211.69,145a.9.9,0,1,1,0-1.76.9.9,0,1,1,0,1.76" transform="translate(-25 -19)"/><path class="cls-9" d="M211.69,206.42a.9.9,0,1,1,1.1-.88,1,1,0,0,1-1.1.88" transform="translate(-25 -19)"/><path class="cls-9" d="M211.69,218.7a.9.9,0,1,1,1.1-.88,1,1,0,0,1-1.1.88" transform="translate(-25 -19)"/><path class="cls-9" d="M211.69,231a.9.9,0,1,1,1.1-.88,1,1,0,0,1-1.1.88" transform="translate(-25 -19)"/><path class="cls-9" d="M211.69,132.74a.9.9,0,1,1,1.1-.88,1,1,0,0,1-1.1.88" transform="translate(-25 -19)"/><path class="cls-9" d="M57,194.14a.9.9,0,1,1,1.1-.88,1,1,0,0,1-1.1.88" transform="translate(-25 -19)"/><path class="cls-9" d="M57,181.86a.9.9,0,1,1,1.1-.88,1,1,0,0,1-1.1.88" transform="translate(-25 -19)"/><path class="cls-9" d="M57,169.58a.9.9,0,1,1,1.1-.88,1,1,0,0,1-1.1.88" transform="translate(-25 -19)"/><path class="cls-9" d="M57,157.3a.9.9,0,1,1,1.1-.88,1,1,0,0,1-1.1.88" transform="translate(-25 -19)"/><path class="cls-9" d="M57,145a.9.9,0,1,1,1.1-.88A1,1,0,0,1,57,145" transform="translate(-25 -19)"/><path class="cls-9" d="M57,206.42a.9.9,0,1,1,1.1-.88,1,1,0,0,1-1.1.88" transform="translate(-25 -19)"/><path class="cls-9" d="M57,218.7a.9.9,0,1,1,1.1-.88,1,1,0,0,1-1.1.88" transform="translate(-25 -19)"/><path class="cls-9" d="M57,231a.9.9,0,1,1,1.1-.88A1,1,0,0,1,57,231" transform="translate(-25 -19)"/><path class="cls-9" d="M57,132.74a.9.9,0,1,1,1.1-.88,1,1,0,0,1-1.1.88" transform="translate(-25 -19)"/><path class="cls-9" d="M180.76,194.14a.9.9,0,1,1,1.1-.88,1,1,0,0,1-1.1.88" transform="translate(-25 -19)"/><path class="cls-9" d="M180.76,181.86a.9.9,0,1,1,1.1-.88,1,1,0,0,1-1.1.88" transform="translate(-25 -19)"/><path class="cls-9" d="M180.76,169.58a.9.9,0,1,1,1.1-.88,1,1,0,0,1-1.1.88" transform="translate(-25 -19)"/><path class="cls-9" d="M180.76,157.3a.9.9,0,1,1,1.1-.88,1,1,0,0,1-1.1.88" transform="translate(-25 -19)"/><path class="cls-9" d="M180.76,145a.9.9,0,1,1,1.1-.88,1,1,0,0,1-1.1.88" transform="translate(-25 -19)"/><path class="cls-9" d="M180.76,206.42a.9.9,0,1,1,1.1-.88,1,1,0,0,1-1.1.88" transform="translate(-25 -19)"/><path class="cls-9" d="M180.76,218.7a.9.9,0,1,1,1.1-.88,1,1,0,0,1-1.1.88" transform="translate(-25 -19)"/><path class="cls-9" d="M180.76,231a.9.9,0,1,1,1.1-.88,1,1,0,0,1-1.1.88" transform="translate(-25 -19)"/><path class="cls-9" d="M180.76,132.74a.9.9,0,1,1,1.1-.88,1,1,0,0,1-1.1.88" transform="translate(-25 -19)"/><path class="cls-9" d="M26.1,194.14a.9.9,0,1,1,1.09-.88,1,1,0,0,1-1.09.88" transform="translate(-25 -19)"/><path class="cls-9" d="M26.1,181.86a.9.9,0,1,1,1.09-.88,1,1,0,0,1-1.09.88" transform="translate(-25 -19)"/><path class="cls-9" d="M26.1,169.58a.9.9,0,1,1,1.09-.88,1,1,0,0,1-1.09.88" transform="translate(-25 -19)"/><path class="cls-9" d="M26.1,157.3a.9.9,0,1,1,1.09-.88,1,1,0,0,1-1.09.88" transform="translate(-25 -19)"/><path class="cls-9" d="M26.1,145a.9.9,0,1,1,1.09-.88,1,1,0,0,1-1.09.88" transform="translate(-25 -19)"/><path class="cls-9" d="M26.1,206.42a.9.9,0,1,1,0-1.76.9.9,0,1,1,0,1.76" transform="translate(-25 -19)"/><path class="cls-9" d="M26.1,218.7a.9.9,0,1,1,0-1.76.9.9,0,1,1,0,1.76" transform="translate(-25 -19)"/><path class="cls-9" d="M26.1,231a.9.9,0,1,1,0-1.76.9.9,0,1,1,0,1.76" transform="translate(-25 -19)"/><path class="cls-9" d="M26.1,132.74a.9.9,0,1,1,1.09-.88,1,1,0,0,1-1.09.88" transform="translate(-25 -19)"/></g></g><g class="cls-7"><g class="cls-10"><path class="cls-9" d="M320,82.15a.9.9,0,1,1,1.09-.87,1,1,0,0,1-1.09.87" transform="translate(-25 -19)"/><path class="cls-9" d="M320,69.87a.9.9,0,1,1,1.09-.87,1,1,0,0,1-1.09.87" transform="translate(-25 -19)"/><path class="cls-9" d="M320,57.59a.9.9,0,1,1,1.09-.87,1,1,0,0,1-1.09.87" transform="translate(-25 -19)"/><path class="cls-9" d="M320,45.31a.9.9,0,1,1,1.09-.87,1,1,0,0,1-1.09.87" transform="translate(-25 -19)"/><path class="cls-9" d="M320,33a.9.9,0,1,1,1.09-.87A1,1,0,0,1,320,33" transform="translate(-25 -19)"/><path class="cls-9" d="M320,94.43a.9.9,0,1,1,1.09-.87,1,1,0,0,1-1.09.87" transform="translate(-25 -19)"/><path class="cls-9" d="M320,106.71a.9.9,0,1,1,1.09-.88,1,1,0,0,1-1.09.88" transform="translate(-25 -19)"/><path class="cls-9" d="M320,119a.9.9,0,1,1,1.09-.88A1,1,0,0,1,320,119" transform="translate(-25 -19)"/><path class="cls-9" d="M320,20.75a1,1,0,0,1-1.1-.87,1.12,1.12,0,0,1,2.19,0,1,1,0,0,1-1.09.87" transform="translate(-25 -19)"/><path class="cls-9" d="M165.29,82.15a.9.9,0,1,1,1.1-.87,1,1,0,0,1-1.1.87" transform="translate(-25 -19)"/><path class="cls-9" d="M165.29,69.87a.9.9,0,1,1,1.1-.87,1,1,0,0,1-1.1.87" transform="translate(-25 -19)"/><path class="cls-9" d="M165.29,57.59a.9.9,0,1,1,1.1-.87,1,1,0,0,1-1.1.87" transform="translate(-25 -19)"/><path class="cls-9" d="M165.29,45.31a.9.9,0,1,1,1.1-.87,1,1,0,0,1-1.1.87" transform="translate(-25 -19)"/><path class="cls-9" d="M165.29,33a.9.9,0,1,1,1.1-.87,1,1,0,0,1-1.1.87" transform="translate(-25 -19)"/><path class="cls-9" d="M165.29,94.43a.9.9,0,1,1,1.1-.87,1,1,0,0,1-1.1.87" transform="translate(-25 -19)"/><path class="cls-9" d="M165.29,106.71a.9.9,0,1,1,1.1-.88,1,1,0,0,1-1.1.88" transform="translate(-25 -19)"/><path class="cls-9" d="M165.29,119a.9.9,0,1,1,1.1-.88,1,1,0,0,1-1.1.88" transform="translate(-25 -19)"/><path class="cls-9" d="M165.29,20.75a1,1,0,0,1-1.09-.87,1.12,1.12,0,0,1,2.19,0,1,1,0,0,1-1.1.87" transform="translate(-25 -19)"/><path class="cls-9" d="M289,82.15a.9.9,0,1,1,1.09-.87,1,1,0,0,1-1.09.87" transform="translate(-25 -19)"/><path class="cls-9" d="M289,69.87a.9.9,0,1,1,1.09-.87,1,1,0,0,1-1.09.87" transform="translate(-25 -19)"/><path class="cls-9" d="M289,57.59a.9.9,0,1,1,1.09-.87,1,1,0,0,1-1.09.87" transform="translate(-25 -19)"/><path class="cls-9" d="M289,45.31a.9.9,0,1,1,1.09-.87,1,1,0,0,1-1.09.87" transform="translate(-25 -19)"/><path class="cls-9" d="M289,33a.9.9,0,1,1,1.09-.87A1,1,0,0,1,289,33" transform="translate(-25 -19)"/><path class="cls-9" d="M289,94.43a.9.9,0,1,1,1.09-.87,1,1,0,0,1-1.09.87" transform="translate(-25 -19)"/><path class="cls-9" d="M289,106.71a.9.9,0,1,1,1.09-.88,1,1,0,0,1-1.09.88" transform="translate(-25 -19)"/><path class="cls-9" d="M289,119a.9.9,0,1,1,1.09-.88A1,1,0,0,1,289,119" transform="translate(-25 -19)"/><path class="cls-9" d="M289,20.75a1,1,0,0,1-1.1-.87,1.12,1.12,0,0,1,2.19,0,1,1,0,0,1-1.09.87" transform="translate(-25 -19)"/><path class="cls-9" d="M134.36,82.15a.9.9,0,1,1,1.1-.87,1,1,0,0,1-1.1.87" transform="translate(-25 -19)"/><path class="cls-9" d="M134.36,69.87a.9.9,0,1,1,1.1-.87,1,1,0,0,1-1.1.87" transform="translate(-25 -19)"/><path class="cls-9" d="M134.36,57.59a.9.9,0,1,1,1.1-.87,1,1,0,0,1-1.1.87" transform="translate(-25 -19)"/><path class="cls-9" d="M134.36,45.31a.9.9,0,1,1,1.1-.87,1,1,0,0,1-1.1.87" transform="translate(-25 -19)"/><path class="cls-9" d="M134.36,33a.9.9,0,1,1,1.1-.87,1,1,0,0,1-1.1.87" transform="translate(-25 -19)"/><path class="cls-9" d="M134.36,94.43a.9.9,0,1,1,1.1-.87,1,1,0,0,1-1.1.87" transform="translate(-25 -19)"/><path class="cls-9" d="M134.36,106.71a.9.9,0,1,1,1.1-.88,1,1,0,0,1-1.1.88" transform="translate(-25 -19)"/><path class="cls-9" d="M134.36,119a.9.9,0,1,1,1.1-.88,1,1,0,0,1-1.1.88" transform="translate(-25 -19)"/><path class="cls-9" d="M134.36,20.75a1,1,0,0,1-1.1-.87,1.13,1.13,0,0,1,2.2,0,1,1,0,0,1-1.1.87" transform="translate(-25 -19)"/><path class="cls-9" d="M258.09,82.15a.9.9,0,1,1,1.1-.87,1,1,0,0,1-1.1.87" transform="translate(-25 -19)"/><path class="cls-9" d="M258.09,69.87a.9.9,0,1,1,1.1-.87,1,1,0,0,1-1.1.87" transform="translate(-25 -19)"/><path class="cls-9" d="M258.09,57.59a.9.9,0,1,1,1.1-.87,1,1,0,0,1-1.1.87" transform="translate(-25 -19)"/><path class="cls-9" d="M258.09,45.31a.9.9,0,1,1,1.1-.87,1,1,0,0,1-1.1.87" transform="translate(-25 -19)"/><path class="cls-9" d="M258.09,33a.9.9,0,1,1,1.1-.87,1,1,0,0,1-1.1.87" transform="translate(-25 -19)"/><path class="cls-9" d="M258.09,94.43a.9.9,0,1,1,1.1-.87,1,1,0,0,1-1.1.87" transform="translate(-25 -19)"/><path class="cls-9" d="M258.09,106.71a.9.9,0,1,1,1.1-.88,1,1,0,0,1-1.1.88" transform="translate(-25 -19)"/><path class="cls-9" d="M258.09,119a.9.9,0,1,1,1.1-.88,1,1,0,0,1-1.1.88" transform="translate(-25 -19)"/><path class="cls-9" d="M258.09,20.75a1,1,0,0,1-1.09-.87,1.12,1.12,0,0,1,2.19,0,1,1,0,0,1-1.1.87" transform="translate(-25 -19)"/><path class="cls-9" d="M103.43,82.15a.9.9,0,1,1,1.1-.87,1,1,0,0,1-1.1.87" transform="translate(-25 -19)"/><path class="cls-9" d="M103.43,69.87a.9.9,0,1,1,1.1-.87,1,1,0,0,1-1.1.87" transform="translate(-25 -19)"/><path class="cls-9" d="M103.43,57.59a.9.9,0,1,1,1.1-.87,1,1,0,0,1-1.1.87" transform="translate(-25 -19)"/><path class="cls-9" d="M103.43,45.31a.9.9,0,1,1,1.1-.87,1,1,0,0,1-1.1.87" transform="translate(-25 -19)"/><path class="cls-9" d="M103.43,33a.9.9,0,1,1,1.1-.87,1,1,0,0,1-1.1.87" transform="translate(-25 -19)"/><path class="cls-9" d="M103.43,94.43a.9.9,0,1,1,1.1-.87,1,1,0,0,1-1.1.87" transform="translate(-25 -19)"/><path class="cls-9" d="M103.43,106.71a.9.9,0,1,1,1.1-.88,1,1,0,0,1-1.1.88" transform="translate(-25 -19)"/><path class="cls-9" d="M103.43,119a.9.9,0,1,1,1.1-.88,1,1,0,0,1-1.1.88" transform="translate(-25 -19)"/><path class="cls-9" d="M103.43,20.75a1,1,0,0,1-1.1-.87,1.13,1.13,0,0,1,2.2,0,1,1,0,0,1-1.1.87" transform="translate(-25 -19)"/><path class="cls-9" d="M227.16,82.15a.9.9,0,1,1,1.1-.87,1,1,0,0,1-1.1.87" transform="translate(-25 -19)"/><path class="cls-9" d="M227.16,69.87a.9.9,0,1,1,1.1-.87,1,1,0,0,1-1.1.87" transform="translate(-25 -19)"/><path class="cls-9" d="M227.16,57.59a.9.9,0,1,1,1.1-.87,1,1,0,0,1-1.1.87" transform="translate(-25 -19)"/><path class="cls-9" d="M227.16,45.31a.9.9,0,1,1,1.1-.87,1,1,0,0,1-1.1.87" transform="translate(-25 -19)"/><path class="cls-9" d="M227.16,33a.9.9,0,1,1,1.1-.87,1,1,0,0,1-1.1.87" transform="translate(-25 -19)"/><path class="cls-9" d="M227.16,94.43a.9.9,0,1,1,1.1-.87,1,1,0,0,1-1.1.87" transform="translate(-25 -19)"/><path class="cls-9" d="M227.16,106.71a.9.9,0,1,1,1.1-.88,1,1,0,0,1-1.1.88" transform="translate(-25 -19)"/><path class="cls-9" d="M227.16,119a.9.9,0,1,1,1.1-.88,1,1,0,0,1-1.1.88" transform="translate(-25 -19)"/><path class="cls-9" d="M227.16,20.75a1,1,0,0,1-1.1-.87,1.13,1.13,0,0,1,2.2,0,1,1,0,0,1-1.1.87" transform="translate(-25 -19)"/><path class="cls-9" d="M72.5,82.15a.9.9,0,1,1,1.09-.87,1,1,0,0,1-1.09.87" transform="translate(-25 -19)"/><path class="cls-9" d="M72.5,69.87A.9.9,0,1,1,73.59,69a1,1,0,0,1-1.09.87" transform="translate(-25 -19)"/><path class="cls-9" d="M72.5,57.59a.9.9,0,1,1,1.09-.87,1,1,0,0,1-1.09.87" transform="translate(-25 -19)"/><path class="cls-9" d="M72.5,45.31a.9.9,0,1,1,1.09-.87,1,1,0,0,1-1.09.87" transform="translate(-25 -19)"/><path class="cls-9" d="M72.5,33a.9.9,0,1,1,1.09-.87A1,1,0,0,1,72.5,33" transform="translate(-25 -19)"/><path class="cls-9" d="M72.5,94.43a.9.9,0,1,1,1.09-.87,1,1,0,0,1-1.09.87" transform="translate(-25 -19)"/><path class="cls-9" d="M72.5,106.71a.9.9,0,1,1,1.09-.88,1,1,0,0,1-1.09.88" transform="translate(-25 -19)"/><path class="cls-9" d="M72.5,119a.9.9,0,1,1,1.09-.88,1,1,0,0,1-1.09.88" transform="translate(-25 -19)"/><path class="cls-9" d="M72.5,20.75a1,1,0,0,1-1.1-.87,1.12,1.12,0,0,1,2.19,0,1,1,0,0,1-1.09.87" transform="translate(-25 -19)"/><path class="cls-9" d="M196.23,82.15a.9.9,0,1,1,1.09-.87,1,1,0,0,1-1.09.87" transform="translate(-25 -19)"/><path class="cls-9" d="M196.23,69.87a.9.9,0,1,1,1.09-.87,1,1,0,0,1-1.09.87" transform="translate(-25 -19)"/><path class="cls-9" d="M196.23,57.59a.9.9,0,1,1,1.09-.87,1,1,0,0,1-1.09.87" transform="translate(-25 -19)"/><path class="cls-9" d="M196.23,45.31a.9.9,0,1,1,1.09-.87,1,1,0,0,1-1.09.87" transform="translate(-25 -19)"/><path class="cls-9" d="M196.23,33a.9.9,0,1,1,1.09-.87,1,1,0,0,1-1.09.87" transform="translate(-25 -19)"/><path class="cls-9" d="M196.23,94.43a.9.9,0,1,1,1.09-.87,1,1,0,0,1-1.09.87" transform="translate(-25 -19)"/><path class="cls-9" d="M196.23,106.71a.9.9,0,1,1,1.09-.88,1,1,0,0,1-1.09.88" transform="translate(-25 -19)"/><path class="cls-9" d="M196.23,119a.9.9,0,1,1,1.09-.88,1,1,0,0,1-1.09.88" transform="translate(-25 -19)"/><path class="cls-9" d="M196.23,20.75a1,1,0,0,1-1.1-.87,1.12,1.12,0,0,1,2.19,0,1,1,0,0,1-1.09.87" transform="translate(-25 -19)"/><path class="cls-9" d="M41.56,82.15a.9.9,0,1,1,1.1-.87,1,1,0,0,1-1.1.87" transform="translate(-25 -19)"/><path class="cls-9" d="M41.56,69.87a.9.9,0,1,1,1.1-.87,1,1,0,0,1-1.1.87" transform="translate(-25 -19)"/><path class="cls-9" d="M41.56,57.59a.9.9,0,1,1,1.1-.87,1,1,0,0,1-1.1.87" transform="translate(-25 -19)"/><path class="cls-9" d="M41.56,45.31a.9.9,0,1,1,1.1-.87,1,1,0,0,1-1.1.87" transform="translate(-25 -19)"/><path class="cls-9" d="M41.56,33a.9.9,0,1,1,1.1-.87,1,1,0,0,1-1.1.87" transform="translate(-25 -19)"/><path class="cls-9" d="M41.56,94.43a.9.9,0,1,1,1.1-.87,1,1,0,0,1-1.1.87" transform="translate(-25 -19)"/><path class="cls-9" d="M41.56,106.71a.9.9,0,1,1,1.1-.88,1,1,0,0,1-1.1.88" transform="translate(-25 -19)"/><path class="cls-9" d="M41.56,119a.9.9,0,1,1,1.1-.88,1,1,0,0,1-1.1.88" transform="translate(-25 -19)"/><path class="cls-9" d="M41.56,20.75a1,1,0,0,1-1.09-.87,1.12,1.12,0,0,1,2.19,0,1,1,0,0,1-1.1.87" transform="translate(-25 -19)"/><path class="cls-9" d="M304.49,82.15a.9.9,0,1,1,1.1-.87,1,1,0,0,1-1.1.87" transform="translate(-25 -19)"/><path class="cls-9" d="M304.49,69.87a.9.9,0,1,1,1.1-.87,1,1,0,0,1-1.1.87" transform="translate(-25 -19)"/><path class="cls-9" d="M304.49,57.59a.9.9,0,1,1,1.1-.87,1,1,0,0,1-1.1.87" transform="translate(-25 -19)"/><path class="cls-9" d="M304.49,45.31a.9.9,0,1,1,1.1-.87,1,1,0,0,1-1.1.87" transform="translate(-25 -19)"/><path class="cls-9" d="M304.49,33a.9.9,0,1,1,1.1-.87,1,1,0,0,1-1.1.87" transform="translate(-25 -19)"/><path class="cls-9" d="M304.49,94.43a.9.9,0,1,1,1.1-.87,1,1,0,0,1-1.1.87" transform="translate(-25 -19)"/><path class="cls-9" d="M304.49,106.71a.9.9,0,1,1,1.1-.88,1,1,0,0,1-1.1.88" transform="translate(-25 -19)"/><path class="cls-9" d="M304.49,119a.9.9,0,1,1,1.1-.88,1,1,0,0,1-1.1.88" transform="translate(-25 -19)"/><path class="cls-9" d="M304.49,20.75a1,1,0,0,1-1.1-.87,1.13,1.13,0,0,1,2.2,0,1,1,0,0,1-1.1.87" transform="translate(-25 -19)"/><path class="cls-9" d="M149.83,82.15a.9.9,0,1,1,1.09-.87,1,1,0,0,1-1.09.87" transform="translate(-25 -19)"/><path class="cls-9" d="M149.83,69.87a.9.9,0,1,1,1.09-.87,1,1,0,0,1-1.09.87" transform="translate(-25 -19)"/><path class="cls-9" d="M149.83,57.59a.9.9,0,1,1,1.09-.87,1,1,0,0,1-1.09.87" transform="translate(-25 -19)"/><path class="cls-9" d="M149.83,45.31a.9.9,0,1,1,1.09-.87,1,1,0,0,1-1.09.87" transform="translate(-25 -19)"/><path class="cls-9" d="M149.83,33a.9.9,0,1,1,1.09-.87,1,1,0,0,1-1.09.87" transform="translate(-25 -19)"/><path class="cls-9" d="M149.83,94.43a.9.9,0,1,1,1.09-.87,1,1,0,0,1-1.09.87" transform="translate(-25 -19)"/><path class="cls-9" d="M149.83,106.71a.9.9,0,1,1,1.09-.88,1,1,0,0,1-1.09.88" transform="translate(-25 -19)"/><path class="cls-9" d="M149.83,119a.9.9,0,1,1,1.09-.88,1,1,0,0,1-1.09.88" transform="translate(-25 -19)"/><path class="cls-9" d="M149.83,20.75a1,1,0,0,1-1.1-.87,1.12,1.12,0,0,1,2.19,0,1,1,0,0,1-1.09.87" transform="translate(-25 -19)"/><path class="cls-9" d="M273.56,82.15a.9.9,0,1,1,1.1-.87,1,1,0,0,1-1.1.87" transform="translate(-25 -19)"/><path class="cls-9" d="M273.56,69.87a.9.9,0,1,1,1.1-.87,1,1,0,0,1-1.1.87" transform="translate(-25 -19)"/><path class="cls-9" d="M273.56,57.59a.9.9,0,1,1,1.1-.87,1,1,0,0,1-1.1.87" transform="translate(-25 -19)"/><path class="cls-9" d="M273.56,45.31a.9.9,0,1,1,1.1-.87,1,1,0,0,1-1.1.87" transform="translate(-25 -19)"/><path class="cls-9" d="M273.56,33a.9.9,0,1,1,1.1-.87,1,1,0,0,1-1.1.87" transform="translate(-25 -19)"/><path class="cls-9" d="M273.56,94.43a.9.9,0,1,1,1.1-.87,1,1,0,0,1-1.1.87" transform="translate(-25 -19)"/><path class="cls-9" d="M273.56,106.71a.9.9,0,1,1,1.1-.88,1,1,0,0,1-1.1.88" transform="translate(-25 -19)"/><path class="cls-9" d="M273.56,119a.9.9,0,1,1,1.1-.88,1,1,0,0,1-1.1.88" transform="translate(-25 -19)"/><path class="cls-9" d="M273.56,20.75a1,1,0,0,1-1.1-.87,1.13,1.13,0,0,1,2.2,0,1,1,0,0,1-1.1.87" transform="translate(-25 -19)"/><path class="cls-9" d="M118.89,82.15a.9.9,0,1,1,1.1-.87,1,1,0,0,1-1.1.87" transform="translate(-25 -19)"/><path class="cls-9" d="M118.89,69.87A.9.9,0,1,1,120,69a1,1,0,0,1-1.1.87" transform="translate(-25 -19)"/><path class="cls-9" d="M118.89,57.59a.9.9,0,1,1,1.1-.87,1,1,0,0,1-1.1.87" transform="translate(-25 -19)"/><path class="cls-9" d="M118.89,45.31a.9.9,0,1,1,1.1-.87,1,1,0,0,1-1.1.87" transform="translate(-25 -19)"/><path class="cls-9" d="M118.89,33a.9.9,0,1,1,1.1-.87,1,1,0,0,1-1.1.87" transform="translate(-25 -19)"/><path class="cls-9" d="M118.89,94.43a.9.9,0,1,1,1.1-.87,1,1,0,0,1-1.1.87" transform="translate(-25 -19)"/><path class="cls-9" d="M118.89,106.71a.9.9,0,1,1,1.1-.88,1,1,0,0,1-1.1.88" transform="translate(-25 -19)"/><path class="cls-9" d="M118.89,119a.9.9,0,1,1,1.1-.88,1,1,0,0,1-1.1.88" transform="translate(-25 -19)"/><path class="cls-9" d="M118.89,20.75a1,1,0,0,1-1.09-.87,1.12,1.12,0,0,1,2.19,0,1,1,0,0,1-1.1.87" transform="translate(-25 -19)"/><path class="cls-9" d="M242.63,82.15a.9.9,0,1,1,1.09-.87,1,1,0,0,1-1.09.87" transform="translate(-25 -19)"/><path class="cls-9" d="M242.63,69.87a.9.9,0,1,1,1.09-.87,1,1,0,0,1-1.09.87" transform="translate(-25 -19)"/><path class="cls-9" d="M242.63,57.59a.9.9,0,1,1,1.09-.87,1,1,0,0,1-1.09.87" transform="translate(-25 -19)"/><path class="cls-9" d="M242.63,45.31a.9.9,0,1,1,1.09-.87,1,1,0,0,1-1.09.87" transform="translate(-25 -19)"/><path class="cls-9" d="M242.63,33a.9.9,0,1,1,1.09-.87,1,1,0,0,1-1.09.87" transform="translate(-25 -19)"/><path class="cls-9" d="M242.63,94.43a.9.9,0,1,1,1.09-.87,1,1,0,0,1-1.09.87" transform="translate(-25 -19)"/><path class="cls-9" d="M242.63,106.71a.9.9,0,1,1,1.09-.88,1,1,0,0,1-1.09.88" transform="translate(-25 -19)"/><path class="cls-9" d="M242.63,119a.9.9,0,1,1,1.09-.88,1,1,0,0,1-1.09.88" transform="translate(-25 -19)"/><path class="cls-9" d="M242.63,20.75a1,1,0,0,1-1.1-.87,1.12,1.12,0,0,1,2.19,0,1,1,0,0,1-1.09.87" transform="translate(-25 -19)"/><path class="cls-9" d="M88,82.15a.9.9,0,1,1,1.1-.87,1,1,0,0,1-1.1.87" transform="translate(-25 -19)"/><path class="cls-9" d="M88,69.87a.9.9,0,1,1,1.1-.87,1,1,0,0,1-1.1.87" transform="translate(-25 -19)"/><path class="cls-9" d="M88,57.59a.9.9,0,1,1,1.1-.87,1,1,0,0,1-1.1.87" transform="translate(-25 -19)"/><path class="cls-9" d="M88,45.31a.9.9,0,1,1,1.1-.87,1,1,0,0,1-1.1.87" transform="translate(-25 -19)"/><path class="cls-9" d="M88,33a.9.9,0,1,1,1.1-.87A1,1,0,0,1,88,33" transform="translate(-25 -19)"/><path class="cls-9" d="M88,94.43a.9.9,0,1,1,1.1-.87,1,1,0,0,1-1.1.87" transform="translate(-25 -19)"/><path class="cls-9" d="M88,106.71a.9.9,0,1,1,1.1-.88,1,1,0,0,1-1.1.88" transform="translate(-25 -19)"/><path class="cls-9" d="M88,119a.9.9,0,1,1,1.1-.88A1,1,0,0,1,88,119" transform="translate(-25 -19)"/><path class="cls-9" d="M88,20.75a1,1,0,0,1-1.09-.87,1.12,1.12,0,0,1,2.19,0,1,1,0,0,1-1.1.87" transform="translate(-25 -19)"/><path class="cls-9" d="M211.69,82.15a.9.9,0,1,1,1.1-.87,1,1,0,0,1-1.1.87" transform="translate(-25 -19)"/><path class="cls-9" d="M211.69,69.87a.9.9,0,1,1,1.1-.87,1,1,0,0,1-1.1.87" transform="translate(-25 -19)"/><path class="cls-9" d="M211.69,57.59a.9.9,0,1,1,1.1-.87,1,1,0,0,1-1.1.87" transform="translate(-25 -19)"/><path class="cls-9" d="M211.69,45.31a.9.9,0,1,1,1.1-.87,1,1,0,0,1-1.1.87" transform="translate(-25 -19)"/><path class="cls-9" d="M211.69,33a.9.9,0,1,1,1.1-.87,1,1,0,0,1-1.1.87" transform="translate(-25 -19)"/><path class="cls-9" d="M211.69,94.43a.9.9,0,1,1,1.1-.87,1,1,0,0,1-1.1.87" transform="translate(-25 -19)"/><path class="cls-9" d="M211.69,106.71a.9.9,0,1,1,1.1-.88,1,1,0,0,1-1.1.88" transform="translate(-25 -19)"/><path class="cls-9" d="M211.69,119a.9.9,0,1,1,1.1-.88,1,1,0,0,1-1.1.88" transform="translate(-25 -19)"/><path class="cls-9" d="M211.69,20.75a1,1,0,0,1-1.09-.87,1.12,1.12,0,0,1,2.19,0,1,1,0,0,1-1.1.87" transform="translate(-25 -19)"/><path class="cls-9" d="M57,82.15a.9.9,0,1,1,1.1-.87,1,1,0,0,1-1.1.87" transform="translate(-25 -19)"/><path class="cls-9" d="M57,69.87a.9.9,0,1,1,1.1-.87,1,1,0,0,1-1.1.87" transform="translate(-25 -19)"/><path class="cls-9" d="M57,57.59a.9.9,0,1,1,1.1-.87,1,1,0,0,1-1.1.87" transform="translate(-25 -19)"/><path class="cls-9" d="M57,45.31a.9.9,0,1,1,1.1-.87,1,1,0,0,1-1.1.87" transform="translate(-25 -19)"/><path class="cls-9" d="M57,33a.9.9,0,1,1,1.1-.87A1,1,0,0,1,57,33" transform="translate(-25 -19)"/><path class="cls-9" d="M57,94.43a.9.9,0,1,1,1.1-.87,1,1,0,0,1-1.1.87" transform="translate(-25 -19)"/><path class="cls-9" d="M57,106.71a.9.9,0,1,1,1.1-.88,1,1,0,0,1-1.1.88" transform="translate(-25 -19)"/><path class="cls-9" d="M57,119a.9.9,0,1,1,1.1-.88A1,1,0,0,1,57,119" transform="translate(-25 -19)"/><path class="cls-9" d="M57,20.75a1,1,0,0,1-1.1-.87,1.13,1.13,0,0,1,2.2,0,1,1,0,0,1-1.1.87" transform="translate(-25 -19)"/><path class="cls-9" d="M180.76,82.15a.9.9,0,1,1,1.1-.87,1,1,0,0,1-1.1.87" transform="translate(-25 -19)"/><path class="cls-9" d="M180.76,69.87a.9.9,0,1,1,1.1-.87,1,1,0,0,1-1.1.87" transform="translate(-25 -19)"/><path class="cls-9" d="M180.76,57.59a.9.9,0,1,1,1.1-.87,1,1,0,0,1-1.1.87" transform="translate(-25 -19)"/><path class="cls-9" d="M180.76,45.31a.9.9,0,1,1,1.1-.87,1,1,0,0,1-1.1.87" transform="translate(-25 -19)"/><path class="cls-9" d="M180.76,33a.9.9,0,1,1,1.1-.87,1,1,0,0,1-1.1.87" transform="translate(-25 -19)"/><path class="cls-9" d="M180.76,94.43a.9.9,0,1,1,1.1-.87,1,1,0,0,1-1.1.87" transform="translate(-25 -19)"/><path class="cls-9" d="M180.76,106.71a.9.9,0,1,1,1.1-.88,1,1,0,0,1-1.1.88" transform="translate(-25 -19)"/><path class="cls-9" d="M180.76,119a.9.9,0,1,1,1.1-.88,1,1,0,0,1-1.1.88" transform="translate(-25 -19)"/><path class="cls-9" d="M180.76,20.75a1,1,0,0,1-1.1-.87,1.13,1.13,0,0,1,2.2,0,1,1,0,0,1-1.1.87" transform="translate(-25 -19)"/><path class="cls-9" d="M26.1,82.15a.9.9,0,1,1,1.09-.87,1,1,0,0,1-1.09.87" transform="translate(-25 -19)"/><path class="cls-9" d="M26.1,69.87A.9.9,0,1,1,27.19,69a1,1,0,0,1-1.09.87" transform="translate(-25 -19)"/><path class="cls-9" d="M26.1,57.59a.9.9,0,1,1,1.09-.87,1,1,0,0,1-1.09.87" transform="translate(-25 -19)"/><path class="cls-9" d="M26.1,45.31a.9.9,0,1,1,1.09-.87,1,1,0,0,1-1.09.87" transform="translate(-25 -19)"/><path class="cls-9" d="M26.1,33a.9.9,0,1,1,1.09-.87A1,1,0,0,1,26.1,33" transform="translate(-25 -19)"/><path class="cls-9" d="M26.1,94.43a.9.9,0,1,1,1.09-.87,1,1,0,0,1-1.09.87" transform="translate(-25 -19)"/><path class="cls-9" d="M26.1,106.71a.9.9,0,1,1,1.09-.88,1,1,0,0,1-1.09.88" transform="translate(-25 -19)"/><path class="cls-9" d="M26.1,119a.9.9,0,1,1,1.09-.88,1,1,0,0,1-1.09.88" transform="translate(-25 -19)"/><path class="cls-9" d="M26.1,20.75a1,1,0,0,1-1.1-.87,1.12,1.12,0,0,1,2.19,0,1,1,0,0,1-1.09.87" transform="translate(-25 -19)"/></g></g></g></g></g></g></g></g></g></svg>