<svg xmlns="http://www.w3.org/2000/svg" viewBox="0 0 192.76 61.46"><defs><style>.cls-1{fill:#fff;}</style></defs><title>Ресурс 2</title><g id="Слой_2" data-name="Слой 2"><g id="Слой_1-2" data-name="Слой 1"><polygon class="cls-1" points="184.69 60.71 192.75 60.75 188.69 53.79 184.69 60.71"/><path class="cls-1" d="M174.24,37.49A13,13,0,0,0,166.63,35c-5.86,0-8.79,3.5-8.79,7.54,0,5.4,4,6.79,6,7.4,2.64.82,4.79,1.11,4.79,3.39,0,1.5-1.18,2.11-2.47,2.11-2.07,0-4.25-1.43-6.22-3.32l-3.32,5.32c3.61,2.93,6.15,4,9.36,4,5.86,0,9.4-3.25,9.4-8.21,0-5.9-4.11-7.51-7.79-8.37-1.25-.28-3-.71-3-2.21,0-.9.5-2.15,2.6-2.15a7.16,7.16,0,0,1,4.54,2.22ZM135.43,47V41.24h1.72c2.5,0,3.29,1.46,3.29,2.86S139.65,47,137.15,47Zm-7,13.76h7V52.49l5.29,8.26h8.47l-7-10a7.36,7.36,0,0,0,5.25-7.5c0-1.14-.28-7.51-8.65-7.51H128.43Zm-22.4.71c10.43,0,11-8.14,11-10.82V35.73h-7V50.49c0,1.54-.29,5-4,5s-4-3.43-4-5V35.73H95V50.64c0,2.68.57,10.82,11,10.82m-42.92-.71h7V50l7.26,10.76h8.75l-9.76-12.9,9.51-12.12H77.65L70.11,46.24V35.73h-7Zm-22.3-19,2.86,9.22H38Zm-13.15,19h7.5l1.4-4.32h8.5l1.4,4.32H54l-8.9-25h-8.5ZM7,47V41.24H8.72c2.5,0,3.29,1.46,3.29,2.86S11.22,47,8.72,47ZM0,60.75H7V52.49l5.29,8.26h8.47l-7-10A7.36,7.36,0,0,0,19,43.24c0-1.14-.28-7.51-8.65-7.51H0Z"/><path class="cls-1" d="M136.4,19V6h.79c6.93,0,7,5.11,7,6.51s-.07,6.5-7,6.5Zm-7,6h9.14c9,0,12.87-5.78,12.87-12.5C151.41,6.9,148.84,0,138.54,0H129.4ZM94.48,25h6.76V10l9.25,15h7.26V0H111V14.76L101.84,0H94.48ZM72.18,6,75,15.19H69.33ZM59,25h7.51l1.39-4.32h8.51L77.83,25h7.5L76.44,0H67.93ZM38.38,11.26V5.5H40.1c2.5,0,3.28,1.47,3.28,2.86s-.78,2.9-3.28,2.9ZM31.38,25h7V16.76L43.67,25h8.47l-7-10A7.38,7.38,0,0,0,50.39,7.5c0-1.14-.29-7.5-8.65-7.5H31.38ZM7,20V14.87h3.22c1.14,0,3.75,0,3.75,2.5S11.29,20,10.22,20ZM7,9.86V5H9.93c2.4,0,3.22,1.18,3.22,2.5,0,.93-.46,2.36-3.22,2.36ZM0,0V25H12.79c5.79,0,8.19-3.46,8.19-7a6.41,6.41,0,0,0-5.29-6.4v-.07a5.58,5.58,0,0,0,3.89-5.22C19.58,4.43,18.9,0,12.11,0Z"/></g></g></svg>